%TF.GenerationSoftware,KiCad,Pcbnew,7.0.1-0*%
%TF.CreationDate,2023-11-10T13:36:56-08:00*%
%TF.ProjectId,ws2816b_ring_revA,77733238-3136-4625-9f72-696e675f7265,A*%
%TF.SameCoordinates,Original*%
%TF.FileFunction,Paste,Top*%
%TF.FilePolarity,Positive*%
%FSLAX46Y46*%
G04 Gerber Fmt 4.6, Leading zero omitted, Abs format (unit mm)*
G04 Created by KiCad (PCBNEW 7.0.1-0) date 2023-11-10 13:36:56*
%MOMM*%
%LPD*%
G01*
G04 APERTURE LIST*
G04 Aperture macros list*
%AMRotRect*
0 Rectangle, with rotation*
0 The origin of the aperture is its center*
0 $1 length*
0 $2 width*
0 $3 Rotation angle, in degrees counterclockwise*
0 Add horizontal line*
21,1,$1,$2,0,0,$3*%
G04 Aperture macros list end*
%ADD10RotRect,0.700000X0.320000X101.250000*%
%ADD11RotRect,0.700000X0.320000X236.250000*%
%ADD12R,0.700000X0.320000*%
%ADD13RotRect,0.700000X0.320000X78.750000*%
%ADD14RotRect,0.700000X0.320000X56.250000*%
%ADD15RotRect,0.700000X0.320000X225.000000*%
%ADD16RotRect,0.700000X0.320000X11.250000*%
%ADD17RotRect,0.700000X0.320000X45.000000*%
%ADD18RotRect,0.700000X0.320000X292.500000*%
%ADD19RotRect,0.700000X0.320000X281.250000*%
%ADD20RotRect,0.700000X0.320000X303.750000*%
%ADD21RotRect,0.700000X0.320000X33.750000*%
%ADD22RotRect,0.700000X0.320000X258.750000*%
%ADD23R,0.320000X0.700000*%
%ADD24RotRect,0.700000X0.320000X22.500000*%
%ADD25RotRect,0.700000X0.320000X337.500000*%
%ADD26RotRect,0.700000X0.320000X146.250000*%
%ADD27RotRect,0.700000X0.320000X326.250000*%
%ADD28RotRect,0.700000X0.320000X315.000000*%
%ADD29RotRect,0.700000X0.320000X168.750000*%
%ADD30RotRect,0.700000X0.320000X67.500000*%
%ADD31RotRect,0.700000X0.320000X135.000000*%
%ADD32RotRect,0.700000X0.320000X112.500000*%
%ADD33RotRect,0.700000X0.320000X247.500000*%
%ADD34RotRect,0.700000X0.320000X348.750000*%
%ADD35RotRect,0.700000X0.320000X157.500000*%
%ADD36RotRect,0.700000X0.320000X202.500000*%
%ADD37RotRect,0.700000X0.320000X123.750000*%
%ADD38RotRect,0.700000X0.320000X213.750000*%
%ADD39RotRect,0.700000X0.320000X191.250000*%
G04 APERTURE END LIST*
D10*
%TO.C,U24*%
X122366833Y-103957007D03*
X122984727Y-103834100D03*
X123602622Y-103711193D03*
X123233901Y-101857509D03*
X122616007Y-101980416D03*
X121998112Y-102103323D03*
%TD*%
D11*
%TO.C,U12*%
X169155580Y-111483525D03*
X168631754Y-111133516D03*
X168107928Y-110783507D03*
X167057900Y-112354985D03*
X167581726Y-112704994D03*
X168105552Y-113055003D03*
%TD*%
D12*
%TO.C,U1*%
X146375000Y-72400000D03*
X146375000Y-73030000D03*
X146375000Y-73660000D03*
X148265000Y-73660000D03*
X148265000Y-73030000D03*
X148265000Y-72400000D03*
%TD*%
D13*
%TO.C,U26*%
X121998112Y-93956676D03*
X122616007Y-94079583D03*
X123233901Y-94202490D03*
X123602622Y-92348806D03*
X122984727Y-92225899D03*
X122366833Y-92102992D03*
%TD*%
D14*
%TO.C,U28*%
X125484419Y-84576474D03*
X126008245Y-84926483D03*
X126532071Y-85276492D03*
X127582099Y-83705014D03*
X127058273Y-83355005D03*
X126534447Y-83004996D03*
%TD*%
D15*
%TO.C,U13*%
X166111362Y-115484930D03*
X165665885Y-115039453D03*
X165220408Y-114593976D03*
X163883976Y-115930408D03*
X164329453Y-116375885D03*
X164774930Y-116821362D03*
%TD*%
D16*
%TO.C,U32*%
X141392992Y-73076833D03*
X141515899Y-73694727D03*
X141638806Y-74312622D03*
X143492490Y-73943901D03*
X143369583Y-73326007D03*
X143246676Y-72708112D03*
%TD*%
D17*
%TO.C,U29*%
X128528637Y-80575069D03*
X128974114Y-81020546D03*
X129419591Y-81466023D03*
X130756023Y-80129591D03*
X130310546Y-79684114D03*
X129865069Y-79238637D03*
%TD*%
D18*
%TO.C,U7*%
X170637396Y-87348757D03*
X170055352Y-87589848D03*
X169473308Y-87830938D03*
X170196580Y-89577071D03*
X170778624Y-89335980D03*
X171360668Y-89094890D03*
%TD*%
D19*
%TO.C,U8*%
X172273166Y-92102992D03*
X171655272Y-92225899D03*
X171037377Y-92348806D03*
X171406098Y-94202490D03*
X172023992Y-94079583D03*
X172641887Y-93956676D03*
%TD*%
D20*
%TO.C,U6*%
X168105552Y-83004996D03*
X167581726Y-83355005D03*
X167057900Y-83705014D03*
X168107928Y-85276492D03*
X168631754Y-84926483D03*
X169155580Y-84576474D03*
%TD*%
D21*
%TO.C,U30*%
X132294996Y-77244447D03*
X132645005Y-77768273D03*
X132995014Y-78292099D03*
X134566492Y-77242071D03*
X134216483Y-76718245D03*
X133866474Y-76194419D03*
%TD*%
D22*
%TO.C,U10*%
X172641887Y-102103323D03*
X172023992Y-101980416D03*
X171406098Y-101857509D03*
X171037377Y-103711193D03*
X171655272Y-103834100D03*
X172273166Y-103957007D03*
%TD*%
D23*
%TO.C,U9*%
X172950000Y-97085000D03*
X172320000Y-97085000D03*
X171690000Y-97085000D03*
X171690000Y-98975000D03*
X172320000Y-98975000D03*
X172950000Y-98975000D03*
%TD*%
D24*
%TO.C,U31*%
X136638757Y-74712603D03*
X136879848Y-75294647D03*
X137120938Y-75876691D03*
X138867071Y-75153419D03*
X138625980Y-74571375D03*
X138384890Y-73989331D03*
%TD*%
D25*
%TO.C,U3*%
X156255109Y-73989331D03*
X156014019Y-74571375D03*
X155772928Y-75153419D03*
X157519061Y-75876691D03*
X157760151Y-75294647D03*
X158001242Y-74712603D03*
%TD*%
D26*
%TO.C,U20*%
X133866474Y-119865580D03*
X134216483Y-119341754D03*
X134566492Y-118817928D03*
X132995014Y-117767900D03*
X132645005Y-118291726D03*
X132294996Y-118815552D03*
%TD*%
D27*
%TO.C,U4*%
X160773525Y-76194419D03*
X160423516Y-76718245D03*
X160073507Y-77242071D03*
X161644985Y-78292099D03*
X161994994Y-77768273D03*
X162345003Y-77244447D03*
%TD*%
D28*
%TO.C,U5*%
X164774930Y-79238637D03*
X164329453Y-79684114D03*
X163883976Y-80129591D03*
X165220408Y-81466023D03*
X165665885Y-81020546D03*
X166111362Y-80575069D03*
%TD*%
D29*
%TO.C,U18*%
X143246676Y-123351887D03*
X143369583Y-122733992D03*
X143492490Y-122116098D03*
X141638806Y-121747377D03*
X141515899Y-122365272D03*
X141392992Y-122983166D03*
%TD*%
D30*
%TO.C,U27*%
X123279331Y-89094890D03*
X123861375Y-89335980D03*
X124443419Y-89577071D03*
X125166691Y-87830938D03*
X124584647Y-87589848D03*
X124002603Y-87348757D03*
%TD*%
D12*
%TO.C,U17*%
X148265000Y-123660000D03*
X148265000Y-123030000D03*
X148265000Y-122400000D03*
X146375000Y-122400000D03*
X146375000Y-123030000D03*
X146375000Y-123660000D03*
%TD*%
D31*
%TO.C,U21*%
X129865069Y-116821362D03*
X130310546Y-116375885D03*
X130756023Y-115930408D03*
X129419591Y-114593976D03*
X128974114Y-115039453D03*
X128528637Y-115484930D03*
%TD*%
D32*
%TO.C,U23*%
X124002603Y-108711242D03*
X124584647Y-108470151D03*
X125166691Y-108229061D03*
X124443419Y-106482928D03*
X123861375Y-106724019D03*
X123279331Y-106965109D03*
%TD*%
D33*
%TO.C,U11*%
X171360668Y-106965109D03*
X170778624Y-106724019D03*
X170196580Y-106482928D03*
X169473308Y-108229061D03*
X170055352Y-108470151D03*
X170637396Y-108711242D03*
%TD*%
D34*
%TO.C,U2*%
X151393323Y-72708112D03*
X151270416Y-73326007D03*
X151147509Y-73943901D03*
X153001193Y-74312622D03*
X153124100Y-73694727D03*
X153247007Y-73076833D03*
%TD*%
D23*
%TO.C,U25*%
X121690000Y-98975000D03*
X122320000Y-98975000D03*
X122950000Y-98975000D03*
X122950000Y-97085000D03*
X122320000Y-97085000D03*
X121690000Y-97085000D03*
%TD*%
D35*
%TO.C,U19*%
X138384890Y-122070668D03*
X138625980Y-121488624D03*
X138867071Y-120906580D03*
X137120938Y-120183308D03*
X136879848Y-120765352D03*
X136638757Y-121347396D03*
%TD*%
D36*
%TO.C,U15*%
X158001242Y-121347396D03*
X157760151Y-120765352D03*
X157519061Y-120183308D03*
X155772928Y-120906580D03*
X156014019Y-121488624D03*
X156255109Y-122070668D03*
%TD*%
D37*
%TO.C,U22*%
X126534447Y-113055003D03*
X127058273Y-112704994D03*
X127582099Y-112354985D03*
X126532071Y-110783507D03*
X126008245Y-111133516D03*
X125484419Y-111483525D03*
%TD*%
D38*
%TO.C,U14*%
X162345003Y-118815552D03*
X161994994Y-118291726D03*
X161644985Y-117767900D03*
X160073507Y-118817928D03*
X160423516Y-119341754D03*
X160773525Y-119865580D03*
%TD*%
D39*
%TO.C,U16*%
X153247007Y-122983166D03*
X153124100Y-122365272D03*
X153001193Y-121747377D03*
X151147509Y-122116098D03*
X151270416Y-122733992D03*
X151393323Y-123351887D03*
%TD*%
M02*
