%TF.GenerationSoftware,KiCad,Pcbnew,7.0.1-0*%
%TF.CreationDate,2023-11-10T13:36:56-08:00*%
%TF.ProjectId,ws2816b_ring_revA,77733238-3136-4625-9f72-696e675f7265,A*%
%TF.SameCoordinates,Original*%
%TF.FileFunction,Legend,Top*%
%TF.FilePolarity,Positive*%
%FSLAX46Y46*%
G04 Gerber Fmt 4.6, Leading zero omitted, Abs format (unit mm)*
G04 Created by KiCad (PCBNEW 7.0.1-0) date 2023-11-10 13:36:56*
%MOMM*%
%LPD*%
G01*
G04 APERTURE LIST*
%ADD10C,0.150000*%
%ADD11C,0.120000*%
G04 APERTURE END LIST*
D10*
X144339468Y-71074611D02*
X144908145Y-71018601D01*
X144741172Y-75363579D02*
X145499408Y-75288900D01*
X145157630Y-75705358D02*
X145082950Y-74947122D01*
%TO.C,U24*%
X121230401Y-102280343D02*
X120595226Y-102406687D01*
X120595226Y-102406687D02*
X120527467Y-102456579D01*
X120527467Y-102456579D02*
X120497071Y-102499039D01*
X120497071Y-102499039D02*
X120473643Y-102576527D01*
X120473643Y-102576527D02*
X120501513Y-102716640D01*
X120501513Y-102716640D02*
X120552812Y-102779264D01*
X120552812Y-102779264D02*
X120597142Y-102806860D01*
X120597142Y-102806860D02*
X120678836Y-102827024D01*
X120678836Y-102827024D02*
X121314012Y-102700679D01*
X121301993Y-103030796D02*
X121346323Y-103058392D01*
X121346323Y-103058392D02*
X121397622Y-103121016D01*
X121397622Y-103121016D02*
X121432459Y-103296156D01*
X121432459Y-103296156D02*
X121409031Y-103373644D01*
X121409031Y-103373644D02*
X121378635Y-103416104D01*
X121378635Y-103416104D02*
X121310876Y-103465996D01*
X121310876Y-103465996D02*
X121236150Y-103480860D01*
X121236150Y-103480860D02*
X121117093Y-103468128D01*
X121117093Y-103468128D02*
X120585123Y-103136976D01*
X120585123Y-103136976D02*
X120675701Y-103592340D01*
X121324202Y-104118797D02*
X120801116Y-104222846D01*
X121588270Y-103884201D02*
X120992984Y-103820541D01*
X120992984Y-103820541D02*
X121083562Y-104275906D01*
%TO.C,U12*%
X168773578Y-113472681D02*
X169312054Y-113832479D01*
X169312054Y-113832479D02*
X169395245Y-113845113D01*
X169395245Y-113845113D02*
X169446762Y-113836582D01*
X169446762Y-113836582D02*
X169518121Y-113798356D01*
X169518121Y-113798356D02*
X169597488Y-113679575D01*
X169597488Y-113679575D02*
X169605497Y-113599019D01*
X169605497Y-113599019D02*
X169593663Y-113548160D01*
X169593663Y-113548160D02*
X169550155Y-113476135D01*
X169550155Y-113476135D02*
X169011680Y-113116337D01*
X170093533Y-112937191D02*
X169855431Y-113293535D01*
X169974482Y-113115363D02*
X169309306Y-112670907D01*
X169309306Y-112670907D02*
X169364648Y-112793792D01*
X169364648Y-112793792D02*
X169388314Y-112895511D01*
X169388314Y-112895511D02*
X169380306Y-112976067D01*
X169650442Y-112297501D02*
X169638608Y-112246641D01*
X169638608Y-112246641D02*
X169646617Y-112166086D01*
X169646617Y-112166086D02*
X169745826Y-112017609D01*
X169745826Y-112017609D02*
X169817185Y-111979383D01*
X169817185Y-111979383D02*
X169868701Y-111970853D01*
X169868701Y-111970853D02*
X169951893Y-111983486D01*
X169951893Y-111983486D02*
X170015243Y-112025816D01*
X170015243Y-112025816D02*
X170090427Y-112119005D01*
X170090427Y-112119005D02*
X170232425Y-112729324D01*
X170232425Y-112729324D02*
X170490369Y-112343284D01*
%TO.C,U1*%
X146741152Y-70752697D02*
X146741152Y-71400316D01*
X146741152Y-71400316D02*
X146776866Y-71476506D01*
X146776866Y-71476506D02*
X146812581Y-71514602D01*
X146812581Y-71514602D02*
X146884009Y-71552697D01*
X146884009Y-71552697D02*
X147026866Y-71552697D01*
X147026866Y-71552697D02*
X147098295Y-71514602D01*
X147098295Y-71514602D02*
X147134009Y-71476506D01*
X147134009Y-71476506D02*
X147169723Y-71400316D01*
X147169723Y-71400316D02*
X147169723Y-70752697D01*
X147919723Y-71552697D02*
X147491152Y-71552697D01*
X147705437Y-71552697D02*
X147705437Y-70752697D01*
X147705437Y-70752697D02*
X147634009Y-70866982D01*
X147634009Y-70866982D02*
X147562580Y-70943173D01*
X147562580Y-70943173D02*
X147491152Y-70981268D01*
%TO.C,U26*%
X120384218Y-93626466D02*
X121019393Y-93752810D01*
X121019393Y-93752810D02*
X121101087Y-93732646D01*
X121101087Y-93732646D02*
X121145418Y-93705050D01*
X121145418Y-93705050D02*
X121196716Y-93642426D01*
X121196716Y-93642426D02*
X121224586Y-93502313D01*
X121224586Y-93502313D02*
X121201158Y-93424825D01*
X121201158Y-93424825D02*
X121170762Y-93382365D01*
X121170762Y-93382365D02*
X121103003Y-93332473D01*
X121103003Y-93332473D02*
X120467828Y-93206129D01*
X120605262Y-92905741D02*
X120574866Y-92863281D01*
X120574866Y-92863281D02*
X120551438Y-92785793D01*
X120551438Y-92785793D02*
X120586276Y-92610653D01*
X120586276Y-92610653D02*
X120637574Y-92548028D01*
X120637574Y-92548028D02*
X120681905Y-92520432D01*
X120681905Y-92520432D02*
X120763599Y-92500268D01*
X120763599Y-92500268D02*
X120838325Y-92515132D01*
X120838325Y-92515132D02*
X120943447Y-92572456D01*
X120943447Y-92572456D02*
X121308196Y-93081977D01*
X121308196Y-93081977D02*
X121398774Y-92626613D01*
X120739561Y-91840035D02*
X120711691Y-91980147D01*
X120711691Y-91980147D02*
X120735119Y-92057636D01*
X120735119Y-92057636D02*
X120765515Y-92100096D01*
X120765515Y-92100096D02*
X120863670Y-92192448D01*
X120863670Y-92192448D02*
X121006155Y-92257204D01*
X121006155Y-92257204D02*
X121305061Y-92316660D01*
X121305061Y-92316660D02*
X121386755Y-92296496D01*
X121386755Y-92296496D02*
X121431086Y-92268900D01*
X121431086Y-92268900D02*
X121482384Y-92206276D01*
X121482384Y-92206276D02*
X121510254Y-92066164D01*
X121510254Y-92066164D02*
X121486826Y-91988675D01*
X121486826Y-91988675D02*
X121456430Y-91946215D01*
X121456430Y-91946215D02*
X121388671Y-91896323D01*
X121388671Y-91896323D02*
X121201855Y-91859163D01*
X121201855Y-91859163D02*
X121120161Y-91879327D01*
X121120161Y-91879327D02*
X121075830Y-91906923D01*
X121075830Y-91906923D02*
X121024532Y-91969547D01*
X121024532Y-91969547D02*
X120996662Y-92109660D01*
X120996662Y-92109660D02*
X121020090Y-92187148D01*
X121020090Y-92187148D02*
X121050486Y-92229608D01*
X121050486Y-92229608D02*
X121118245Y-92279500D01*
%TO.C,U28*%
X124119741Y-83653789D02*
X124658217Y-84013587D01*
X124658217Y-84013587D02*
X124741408Y-84026221D01*
X124741408Y-84026221D02*
X124792925Y-84017690D01*
X124792925Y-84017690D02*
X124864284Y-83979464D01*
X124864284Y-83979464D02*
X124943651Y-83860683D01*
X124943651Y-83860683D02*
X124951660Y-83780127D01*
X124951660Y-83780127D02*
X124939826Y-83729268D01*
X124939826Y-83729268D02*
X124896318Y-83657243D01*
X124896318Y-83657243D02*
X124357843Y-83297445D01*
X124599769Y-83072516D02*
X124587935Y-83021657D01*
X124587935Y-83021657D02*
X124595944Y-82941101D01*
X124595944Y-82941101D02*
X124695153Y-82792625D01*
X124695153Y-82792625D02*
X124766512Y-82754398D01*
X124766512Y-82754398D02*
X124818028Y-82745868D01*
X124818028Y-82745868D02*
X124901220Y-82758501D01*
X124901220Y-82758501D02*
X124964570Y-82800831D01*
X124964570Y-82800831D02*
X125039754Y-82894020D01*
X125039754Y-82894020D02*
X125181752Y-83504339D01*
X125181752Y-83504339D02*
X125439696Y-83118299D01*
X125297697Y-82507980D02*
X125226338Y-82546206D01*
X125226338Y-82546206D02*
X125174822Y-82554737D01*
X125174822Y-82554737D02*
X125091630Y-82542103D01*
X125091630Y-82542103D02*
X125059955Y-82520939D01*
X125059955Y-82520939D02*
X125016446Y-82448914D01*
X125016446Y-82448914D02*
X125004613Y-82398054D01*
X125004613Y-82398054D02*
X125012622Y-82317499D01*
X125012622Y-82317499D02*
X125091989Y-82198717D01*
X125091989Y-82198717D02*
X125163348Y-82160491D01*
X125163348Y-82160491D02*
X125214864Y-82151961D01*
X125214864Y-82151961D02*
X125298056Y-82164594D01*
X125298056Y-82164594D02*
X125329731Y-82185759D01*
X125329731Y-82185759D02*
X125373240Y-82257783D01*
X125373240Y-82257783D02*
X125385073Y-82308643D01*
X125385073Y-82308643D02*
X125377064Y-82389199D01*
X125377064Y-82389199D02*
X125297697Y-82507980D01*
X125297697Y-82507980D02*
X125289689Y-82588535D01*
X125289689Y-82588535D02*
X125301522Y-82639395D01*
X125301522Y-82639395D02*
X125345030Y-82711420D01*
X125345030Y-82711420D02*
X125471730Y-82796078D01*
X125471730Y-82796078D02*
X125554922Y-82808712D01*
X125554922Y-82808712D02*
X125606439Y-82800181D01*
X125606439Y-82800181D02*
X125677797Y-82761955D01*
X125677797Y-82761955D02*
X125757165Y-82643174D01*
X125757165Y-82643174D02*
X125765173Y-82562618D01*
X125765173Y-82562618D02*
X125753340Y-82511758D01*
X125753340Y-82511758D02*
X125709832Y-82439734D01*
X125709832Y-82439734D02*
X125583132Y-82355076D01*
X125583132Y-82355076D02*
X125499940Y-82342442D01*
X125499940Y-82342442D02*
X125448423Y-82350973D01*
X125448423Y-82350973D02*
X125377064Y-82389199D01*
%TO.C,U13*%
X165348634Y-117361340D02*
X165806569Y-117819276D01*
X165806569Y-117819276D02*
X165885698Y-117847897D01*
X165885698Y-117847897D02*
X165937889Y-117849581D01*
X165937889Y-117849581D02*
X166015334Y-117826010D01*
X166015334Y-117826010D02*
X166116350Y-117724995D01*
X166116350Y-117724995D02*
X166139920Y-117647550D01*
X166139920Y-117647550D02*
X166138236Y-117595359D01*
X166138236Y-117595359D02*
X166109615Y-117516230D01*
X166109615Y-117516230D02*
X165651679Y-117058294D01*
X166747695Y-117093650D02*
X166444649Y-117396696D01*
X166596172Y-117245173D02*
X166030486Y-116679487D01*
X166030486Y-116679487D02*
X166060791Y-116810807D01*
X166060791Y-116810807D02*
X166064158Y-116915190D01*
X166064158Y-116915190D02*
X166040588Y-116992635D01*
X166358786Y-116351188D02*
X166687086Y-116022888D01*
X166687086Y-116022888D02*
X166725808Y-116415164D01*
X166725808Y-116415164D02*
X166801570Y-116339403D01*
X166801570Y-116339403D02*
X166879015Y-116315832D01*
X166879015Y-116315832D02*
X166931206Y-116317516D01*
X166931206Y-116317516D02*
X167010335Y-116346137D01*
X167010335Y-116346137D02*
X167145022Y-116480824D01*
X167145022Y-116480824D02*
X167173643Y-116559952D01*
X167173643Y-116559952D02*
X167175326Y-116612144D01*
X167175326Y-116612144D02*
X167151756Y-116689589D01*
X167151756Y-116689589D02*
X167000233Y-116841112D01*
X167000233Y-116841112D02*
X166922788Y-116864682D01*
X166922788Y-116864682D02*
X166870597Y-116862998D01*
%TO.C,U32*%
X141080455Y-71459424D02*
X141206799Y-72094599D01*
X141206799Y-72094599D02*
X141256691Y-72162358D01*
X141256691Y-72162358D02*
X141299151Y-72192754D01*
X141299151Y-72192754D02*
X141376639Y-72216182D01*
X141376639Y-72216182D02*
X141516752Y-72188312D01*
X141516752Y-72188312D02*
X141579376Y-72137013D01*
X141579376Y-72137013D02*
X141606972Y-72092683D01*
X141606972Y-72092683D02*
X141627136Y-72010989D01*
X141627136Y-72010989D02*
X141500791Y-71375813D01*
X141781016Y-71320073D02*
X142236380Y-71229496D01*
X142236380Y-71229496D02*
X142050640Y-71577174D01*
X142050640Y-71577174D02*
X142155724Y-71556272D01*
X142155724Y-71556272D02*
X142233212Y-71579700D01*
X142233212Y-71579700D02*
X142275672Y-71610096D01*
X142275672Y-71610096D02*
X142325564Y-71677855D01*
X142325564Y-71677855D02*
X142362724Y-71864671D01*
X142362724Y-71864671D02*
X142342560Y-71946365D01*
X142342560Y-71946365D02*
X142314964Y-71990696D01*
X142314964Y-71990696D02*
X142252340Y-72041994D01*
X142252340Y-72041994D02*
X142042172Y-72083799D01*
X142042172Y-72083799D02*
X141964684Y-72060371D01*
X141964684Y-72060371D02*
X141922224Y-72029975D01*
X142531469Y-71248482D02*
X142559065Y-71204151D01*
X142559065Y-71204151D02*
X142621689Y-71152853D01*
X142621689Y-71152853D02*
X142796829Y-71118016D01*
X142796829Y-71118016D02*
X142874317Y-71141444D01*
X142874317Y-71141444D02*
X142916777Y-71171839D01*
X142916777Y-71171839D02*
X142966669Y-71239598D01*
X142966669Y-71239598D02*
X142981533Y-71314325D01*
X142981533Y-71314325D02*
X142968801Y-71433382D01*
X142968801Y-71433382D02*
X142637649Y-71965351D01*
X142637649Y-71965351D02*
X143093014Y-71874774D01*
%TO.C,U29*%
X127370188Y-79403878D02*
X127828123Y-79861814D01*
X127828123Y-79861814D02*
X127907252Y-79890435D01*
X127907252Y-79890435D02*
X127959443Y-79892119D01*
X127959443Y-79892119D02*
X128036888Y-79868548D01*
X128036888Y-79868548D02*
X128137904Y-79767533D01*
X128137904Y-79767533D02*
X128161474Y-79690088D01*
X128161474Y-79690088D02*
X128159790Y-79637897D01*
X128159790Y-79637897D02*
X128131169Y-79558768D01*
X128131169Y-79558768D02*
X127673233Y-79100832D01*
X127954392Y-78927423D02*
X127952709Y-78875232D01*
X127952709Y-78875232D02*
X127976279Y-78797787D01*
X127976279Y-78797787D02*
X128102548Y-78671518D01*
X128102548Y-78671518D02*
X128179993Y-78647948D01*
X128179993Y-78647948D02*
X128232184Y-78649631D01*
X128232184Y-78649631D02*
X128311313Y-78678252D01*
X128311313Y-78678252D02*
X128365188Y-78732127D01*
X128365188Y-78732127D02*
X128420746Y-78838193D01*
X128420746Y-78838193D02*
X128440949Y-79464488D01*
X128440949Y-79464488D02*
X128769249Y-79136188D01*
X129021787Y-78883650D02*
X129122802Y-78782634D01*
X129122802Y-78782634D02*
X129146373Y-78705189D01*
X129146373Y-78705189D02*
X129144689Y-78652998D01*
X129144689Y-78652998D02*
X129114384Y-78521678D01*
X129114384Y-78521678D02*
X129031889Y-78388675D01*
X129031889Y-78388675D02*
X128816389Y-78173176D01*
X128816389Y-78173176D02*
X128737261Y-78144555D01*
X128737261Y-78144555D02*
X128685070Y-78142871D01*
X128685070Y-78142871D02*
X128607625Y-78166441D01*
X128607625Y-78166441D02*
X128506609Y-78267457D01*
X128506609Y-78267457D02*
X128483039Y-78344902D01*
X128483039Y-78344902D02*
X128484723Y-78397093D01*
X128484723Y-78397093D02*
X128513344Y-78476221D01*
X128513344Y-78476221D02*
X128648031Y-78610908D01*
X128648031Y-78610908D02*
X128727159Y-78639529D01*
X128727159Y-78639529D02*
X128779350Y-78641213D01*
X128779350Y-78641213D02*
X128856796Y-78617643D01*
X128856796Y-78617643D02*
X128957811Y-78516628D01*
X128957811Y-78516628D02*
X128981381Y-78439183D01*
X128981381Y-78439183D02*
X128979697Y-78386991D01*
X128979697Y-78386991D02*
X128951076Y-78307863D01*
%TO.C,U7*%
X172299425Y-87056642D02*
X171701103Y-87304475D01*
X171701103Y-87304475D02*
X171644380Y-87366628D01*
X171644380Y-87366628D02*
X171622852Y-87414202D01*
X171622852Y-87414202D02*
X171614991Y-87494771D01*
X171614991Y-87494771D02*
X171669660Y-87626754D01*
X171669660Y-87626754D02*
X171732190Y-87678167D01*
X171732190Y-87678167D02*
X171781053Y-87696584D01*
X171781053Y-87696584D02*
X171865111Y-87700423D01*
X171865111Y-87700423D02*
X172463433Y-87452590D01*
X172572771Y-87716556D02*
X172764112Y-88178495D01*
X172764112Y-88178495D02*
X171902003Y-88187681D01*
%TO.C,U8*%
X173960249Y-92140736D02*
X173325073Y-92267080D01*
X173325073Y-92267080D02*
X173257314Y-92316972D01*
X173257314Y-92316972D02*
X173226919Y-92359432D01*
X173226919Y-92359432D02*
X173203490Y-92436920D01*
X173203490Y-92436920D02*
X173231360Y-92577032D01*
X173231360Y-92577032D02*
X173282659Y-92639656D01*
X173282659Y-92639656D02*
X173326989Y-92667252D01*
X173326989Y-92667252D02*
X173408683Y-92687416D01*
X173408683Y-92687416D02*
X174043859Y-92561072D01*
X173798167Y-93083324D02*
X173821595Y-93005836D01*
X173821595Y-93005836D02*
X173851991Y-92963376D01*
X173851991Y-92963376D02*
X173919750Y-92913484D01*
X173919750Y-92913484D02*
X173957113Y-92906052D01*
X173957113Y-92906052D02*
X174038807Y-92926216D01*
X174038807Y-92926216D02*
X174083138Y-92953812D01*
X174083138Y-92953812D02*
X174134436Y-93016436D01*
X174134436Y-93016436D02*
X174162306Y-93156549D01*
X174162306Y-93156549D02*
X174138878Y-93234037D01*
X174138878Y-93234037D02*
X174108482Y-93276497D01*
X174108482Y-93276497D02*
X174040723Y-93326389D01*
X174040723Y-93326389D02*
X174003360Y-93333821D01*
X174003360Y-93333821D02*
X173921666Y-93313657D01*
X173921666Y-93313657D02*
X173877335Y-93286061D01*
X173877335Y-93286061D02*
X173826037Y-93223437D01*
X173826037Y-93223437D02*
X173798167Y-93083324D01*
X173798167Y-93083324D02*
X173746869Y-93020700D01*
X173746869Y-93020700D02*
X173702538Y-92993104D01*
X173702538Y-92993104D02*
X173620844Y-92972940D01*
X173620844Y-92972940D02*
X173471391Y-93002668D01*
X173471391Y-93002668D02*
X173403632Y-93052560D01*
X173403632Y-93052560D02*
X173373236Y-93095021D01*
X173373236Y-93095021D02*
X173349808Y-93172509D01*
X173349808Y-93172509D02*
X173377678Y-93312621D01*
X173377678Y-93312621D02*
X173428976Y-93375245D01*
X173428976Y-93375245D02*
X173473307Y-93402841D01*
X173473307Y-93402841D02*
X173555001Y-93423005D01*
X173555001Y-93423005D02*
X173704454Y-93393277D01*
X173704454Y-93393277D02*
X173772213Y-93343385D01*
X173772213Y-93343385D02*
X173802609Y-93300925D01*
X173802609Y-93300925D02*
X173826037Y-93223437D01*
%TO.C,U6*%
X169678657Y-82394247D02*
X169140181Y-82754045D01*
X169140181Y-82754045D02*
X169096673Y-82826069D01*
X169096673Y-82826069D02*
X169084839Y-82876929D01*
X169084839Y-82876929D02*
X169092848Y-82957484D01*
X169092848Y-82957484D02*
X169172215Y-83076266D01*
X169172215Y-83076266D02*
X169243574Y-83114492D01*
X169243574Y-83114492D02*
X169295091Y-83123023D01*
X169295091Y-83123023D02*
X169378283Y-83110389D01*
X169378283Y-83110389D02*
X169916758Y-82750591D01*
X170293752Y-83314802D02*
X170214385Y-83196021D01*
X170214385Y-83196021D02*
X170143026Y-83157795D01*
X170143026Y-83157795D02*
X170091509Y-83149264D01*
X170091509Y-83149264D02*
X169956801Y-83153367D01*
X169956801Y-83153367D02*
X169810259Y-83208330D01*
X169810259Y-83208330D02*
X169556858Y-83377647D01*
X169556858Y-83377647D02*
X169513350Y-83449671D01*
X169513350Y-83449671D02*
X169501517Y-83500531D01*
X169501517Y-83500531D02*
X169509526Y-83581086D01*
X169509526Y-83581086D02*
X169588893Y-83699868D01*
X169588893Y-83699868D02*
X169660251Y-83738094D01*
X169660251Y-83738094D02*
X169711768Y-83746624D01*
X169711768Y-83746624D02*
X169794960Y-83733991D01*
X169794960Y-83733991D02*
X169953335Y-83628168D01*
X169953335Y-83628168D02*
X169996843Y-83556143D01*
X169996843Y-83556143D02*
X170008677Y-83505283D01*
X170008677Y-83505283D02*
X170000668Y-83424728D01*
X170000668Y-83424728D02*
X169921301Y-83305947D01*
X169921301Y-83305947D02*
X169849942Y-83267721D01*
X169849942Y-83267721D02*
X169798426Y-83259190D01*
X169798426Y-83259190D02*
X169715234Y-83271824D01*
%TO.C,U30*%
X131387293Y-75869758D02*
X131747091Y-76408234D01*
X131747091Y-76408234D02*
X131819116Y-76451742D01*
X131819116Y-76451742D02*
X131869975Y-76463576D01*
X131869975Y-76463576D02*
X131950531Y-76455567D01*
X131950531Y-76455567D02*
X132069312Y-76376200D01*
X132069312Y-76376200D02*
X132107538Y-76304841D01*
X132107538Y-76304841D02*
X132116069Y-76253324D01*
X132116069Y-76253324D02*
X132103435Y-76170133D01*
X132103435Y-76170133D02*
X131743637Y-75631657D01*
X131981200Y-75472923D02*
X132367239Y-75214979D01*
X132367239Y-75214979D02*
X132328688Y-75607272D01*
X132328688Y-75607272D02*
X132417775Y-75547747D01*
X132417775Y-75547747D02*
X132498330Y-75539738D01*
X132498330Y-75539738D02*
X132549190Y-75551572D01*
X132549190Y-75551572D02*
X132621214Y-75595080D01*
X132621214Y-75595080D02*
X132727037Y-75753455D01*
X132727037Y-75753455D02*
X132739671Y-75836647D01*
X132739671Y-75836647D02*
X132731140Y-75888164D01*
X132731140Y-75888164D02*
X132692914Y-75959522D01*
X132692914Y-75959522D02*
X132514742Y-76078573D01*
X132514742Y-76078573D02*
X132434187Y-76086582D01*
X132434187Y-76086582D02*
X132383327Y-76074748D01*
X132753279Y-74957036D02*
X132812670Y-74917352D01*
X132812670Y-74917352D02*
X132893225Y-74909344D01*
X132893225Y-74909344D02*
X132944085Y-74921177D01*
X132944085Y-74921177D02*
X133016109Y-74964685D01*
X133016109Y-74964685D02*
X133130463Y-75071544D01*
X133130463Y-75071544D02*
X133236286Y-75229919D01*
X133236286Y-75229919D02*
X133291249Y-75376461D01*
X133291249Y-75376461D02*
X133303883Y-75459653D01*
X133303883Y-75459653D02*
X133295352Y-75511169D01*
X133295352Y-75511169D02*
X133257126Y-75582528D01*
X133257126Y-75582528D02*
X133197735Y-75622212D01*
X133197735Y-75622212D02*
X133117180Y-75630220D01*
X133117180Y-75630220D02*
X133066320Y-75618387D01*
X133066320Y-75618387D02*
X132994295Y-75574879D01*
X132994295Y-75574879D02*
X132879942Y-75468020D01*
X132879942Y-75468020D02*
X132774119Y-75309645D01*
X132774119Y-75309645D02*
X132719156Y-75163103D01*
X132719156Y-75163103D02*
X132706522Y-75079911D01*
X132706522Y-75079911D02*
X132715053Y-75028395D01*
X132715053Y-75028395D02*
X132753279Y-74957036D01*
%TO.C,U10*%
X173050180Y-104087250D02*
X173685355Y-104213594D01*
X173685355Y-104213594D02*
X173767049Y-104193430D01*
X173767049Y-104193430D02*
X173811380Y-104165834D01*
X173811380Y-104165834D02*
X173862678Y-104103210D01*
X173862678Y-104103210D02*
X173890548Y-103963097D01*
X173890548Y-103963097D02*
X173867120Y-103885609D01*
X173867120Y-103885609D02*
X173836724Y-103843149D01*
X173836724Y-103843149D02*
X173768965Y-103793257D01*
X173768965Y-103793257D02*
X173133790Y-103666913D01*
X174064736Y-103087397D02*
X173981126Y-103507733D01*
X174022931Y-103297565D02*
X173238303Y-103141493D01*
X173238303Y-103141493D02*
X173336457Y-103233845D01*
X173336457Y-103233845D02*
X173397249Y-103318765D01*
X173397249Y-103318765D02*
X173420677Y-103396253D01*
X173370685Y-102475959D02*
X173384620Y-102405903D01*
X173384620Y-102405903D02*
X173435919Y-102343279D01*
X173435919Y-102343279D02*
X173480249Y-102315683D01*
X173480249Y-102315683D02*
X173561944Y-102295519D01*
X173561944Y-102295519D02*
X173718364Y-102290219D01*
X173718364Y-102290219D02*
X173905180Y-102327379D01*
X173905180Y-102327379D02*
X174047666Y-102392135D01*
X174047666Y-102392135D02*
X174115425Y-102442027D01*
X174115425Y-102442027D02*
X174145820Y-102484488D01*
X174145820Y-102484488D02*
X174169249Y-102561976D01*
X174169249Y-102561976D02*
X174155314Y-102632032D01*
X174155314Y-102632032D02*
X174104015Y-102694656D01*
X174104015Y-102694656D02*
X174059685Y-102722252D01*
X174059685Y-102722252D02*
X173977991Y-102742416D01*
X173977991Y-102742416D02*
X173821570Y-102747716D01*
X173821570Y-102747716D02*
X173634754Y-102710556D01*
X173634754Y-102710556D02*
X173492268Y-102645800D01*
X173492268Y-102645800D02*
X173424509Y-102595908D01*
X173424509Y-102595908D02*
X173394114Y-102553448D01*
X173394114Y-102553448D02*
X173370685Y-102475959D01*
%TO.C,U9*%
X173737493Y-98594009D02*
X174385112Y-98594009D01*
X174385112Y-98594009D02*
X174461302Y-98558295D01*
X174461302Y-98558295D02*
X174499398Y-98522581D01*
X174499398Y-98522581D02*
X174537493Y-98451152D01*
X174537493Y-98451152D02*
X174537493Y-98308295D01*
X174537493Y-98308295D02*
X174499398Y-98236866D01*
X174499398Y-98236866D02*
X174461302Y-98201152D01*
X174461302Y-98201152D02*
X174385112Y-98165438D01*
X174385112Y-98165438D02*
X173737493Y-98165438D01*
X174537493Y-97772581D02*
X174537493Y-97629724D01*
X174537493Y-97629724D02*
X174499398Y-97558295D01*
X174499398Y-97558295D02*
X174461302Y-97522581D01*
X174461302Y-97522581D02*
X174347017Y-97451152D01*
X174347017Y-97451152D02*
X174194636Y-97415438D01*
X174194636Y-97415438D02*
X173889874Y-97415438D01*
X173889874Y-97415438D02*
X173813683Y-97451152D01*
X173813683Y-97451152D02*
X173775588Y-97486867D01*
X173775588Y-97486867D02*
X173737493Y-97558295D01*
X173737493Y-97558295D02*
X173737493Y-97701152D01*
X173737493Y-97701152D02*
X173775588Y-97772581D01*
X173775588Y-97772581D02*
X173813683Y-97808295D01*
X173813683Y-97808295D02*
X173889874Y-97844009D01*
X173889874Y-97844009D02*
X174080350Y-97844009D01*
X174080350Y-97844009D02*
X174156540Y-97808295D01*
X174156540Y-97808295D02*
X174194636Y-97772581D01*
X174194636Y-97772581D02*
X174232731Y-97701152D01*
X174232731Y-97701152D02*
X174232731Y-97558295D01*
X174232731Y-97558295D02*
X174194636Y-97486867D01*
X174194636Y-97486867D02*
X174156540Y-97451152D01*
X174156540Y-97451152D02*
X174080350Y-97415438D01*
%TO.C,U31*%
X136016685Y-73187244D02*
X136264518Y-73785566D01*
X136264518Y-73785566D02*
X136326670Y-73842290D01*
X136326670Y-73842290D02*
X136374245Y-73863818D01*
X136374245Y-73863818D02*
X136454814Y-73871679D01*
X136454814Y-73871679D02*
X136586797Y-73817010D01*
X136586797Y-73817010D02*
X136638210Y-73754480D01*
X136638210Y-73754480D02*
X136656627Y-73705617D01*
X136656627Y-73705617D02*
X136660466Y-73621559D01*
X136660466Y-73621559D02*
X136412633Y-73023237D01*
X136676598Y-72913899D02*
X137105543Y-72736225D01*
X137105543Y-72736225D02*
X136991200Y-73113459D01*
X136991200Y-73113459D02*
X137090187Y-73072457D01*
X137090187Y-73072457D02*
X137170757Y-73080318D01*
X137170757Y-73080318D02*
X137218331Y-73101846D01*
X137218331Y-73101846D02*
X137280484Y-73158570D01*
X137280484Y-73158570D02*
X137353376Y-73334547D01*
X137353376Y-73334547D02*
X137349537Y-73418605D01*
X137349537Y-73418605D02*
X137331119Y-73467467D01*
X137331119Y-73467467D02*
X137279707Y-73529997D01*
X137279707Y-73529997D02*
X137081732Y-73612001D01*
X137081732Y-73612001D02*
X137001163Y-73604140D01*
X137001163Y-73604140D02*
X136953588Y-73582612D01*
X138071604Y-73201983D02*
X137675655Y-73365990D01*
X137873629Y-73283986D02*
X137567483Y-72544883D01*
X137567483Y-72544883D02*
X137545226Y-72677804D01*
X137545226Y-72677804D02*
X137508392Y-72775529D01*
X137508392Y-72775529D02*
X137456979Y-72838059D01*
%TO.C,U3*%
X157223784Y-72607541D02*
X156975951Y-73205863D01*
X156975951Y-73205863D02*
X156979790Y-73289921D01*
X156979790Y-73289921D02*
X156998207Y-73338784D01*
X156998207Y-73338784D02*
X157049620Y-73401314D01*
X157049620Y-73401314D02*
X157181603Y-73455983D01*
X157181603Y-73455983D02*
X157262172Y-73448122D01*
X157262172Y-73448122D02*
X157309747Y-73426594D01*
X157309747Y-73426594D02*
X157371899Y-73369870D01*
X157371899Y-73369870D02*
X157619732Y-72771548D01*
X157883697Y-72880886D02*
X158312642Y-73058561D01*
X158312642Y-73058561D02*
X157965044Y-73244453D01*
X157965044Y-73244453D02*
X158064031Y-73285455D01*
X158064031Y-73285455D02*
X158115444Y-73347985D01*
X158115444Y-73347985D02*
X158133862Y-73396848D01*
X158133862Y-73396848D02*
X158137701Y-73480906D01*
X158137701Y-73480906D02*
X158064808Y-73656883D01*
X158064808Y-73656883D02*
X158002656Y-73713606D01*
X158002656Y-73713606D02*
X157955082Y-73735134D01*
X157955082Y-73735134D02*
X157874512Y-73742995D01*
X157874512Y-73742995D02*
X157676538Y-73660992D01*
X157676538Y-73660992D02*
X157625125Y-73598462D01*
X157625125Y-73598462D02*
X157606708Y-73549599D01*
%TO.C,U20*%
X131877316Y-119483577D02*
X131517518Y-120022053D01*
X131517518Y-120022053D02*
X131504884Y-120105244D01*
X131504884Y-120105244D02*
X131513415Y-120156761D01*
X131513415Y-120156761D02*
X131551641Y-120228120D01*
X131551641Y-120228120D02*
X131670422Y-120307487D01*
X131670422Y-120307487D02*
X131750978Y-120315496D01*
X131750978Y-120315496D02*
X131801837Y-120303662D01*
X131801837Y-120303662D02*
X131873862Y-120260154D01*
X131873862Y-120260154D02*
X132233660Y-119721679D01*
X132458589Y-119963605D02*
X132509448Y-119951771D01*
X132509448Y-119951771D02*
X132590004Y-119959780D01*
X132590004Y-119959780D02*
X132738480Y-120058989D01*
X132738480Y-120058989D02*
X132776707Y-120130348D01*
X132776707Y-120130348D02*
X132785237Y-120181864D01*
X132785237Y-120181864D02*
X132772604Y-120265056D01*
X132772604Y-120265056D02*
X132730274Y-120328406D01*
X132730274Y-120328406D02*
X132637085Y-120403590D01*
X132637085Y-120403590D02*
X132026766Y-120545588D01*
X132026766Y-120545588D02*
X132412806Y-120803532D01*
X133243302Y-120396300D02*
X133302692Y-120435983D01*
X133302692Y-120435983D02*
X133340918Y-120507342D01*
X133340918Y-120507342D02*
X133349449Y-120558859D01*
X133349449Y-120558859D02*
X133336815Y-120642050D01*
X133336815Y-120642050D02*
X133281852Y-120788592D01*
X133281852Y-120788592D02*
X133176029Y-120946968D01*
X133176029Y-120946968D02*
X133061676Y-121053826D01*
X133061676Y-121053826D02*
X132989651Y-121097334D01*
X132989651Y-121097334D02*
X132938791Y-121109167D01*
X132938791Y-121109167D02*
X132858236Y-121101159D01*
X132858236Y-121101159D02*
X132798845Y-121061475D01*
X132798845Y-121061475D02*
X132760619Y-120990117D01*
X132760619Y-120990117D02*
X132752088Y-120938600D01*
X132752088Y-120938600D02*
X132764722Y-120855408D01*
X132764722Y-120855408D02*
X132819685Y-120708866D01*
X132819685Y-120708866D02*
X132925508Y-120550491D01*
X132925508Y-120550491D02*
X133039862Y-120443633D01*
X133039862Y-120443633D02*
X133111886Y-120400124D01*
X133111886Y-120400124D02*
X133162746Y-120388291D01*
X133162746Y-120388291D02*
X133243302Y-120396300D01*
%TO.C,U4*%
X161993161Y-75028159D02*
X161633363Y-75566635D01*
X161633363Y-75566635D02*
X161620730Y-75649826D01*
X161620730Y-75649826D02*
X161629260Y-75701343D01*
X161629260Y-75701343D02*
X161667486Y-75772702D01*
X161667486Y-75772702D02*
X161786268Y-75852069D01*
X161786268Y-75852069D02*
X161866823Y-75860078D01*
X161866823Y-75860078D02*
X161917683Y-75848244D01*
X161917683Y-75848244D02*
X161989708Y-75804736D01*
X161989708Y-75804736D02*
X162349505Y-75266261D01*
X162765565Y-75864980D02*
X162469261Y-76308430D01*
X162786405Y-75512371D02*
X162320459Y-75888287D01*
X162320459Y-75888287D02*
X162706499Y-76146230D01*
%TO.C,U5*%
X166198657Y-78332726D02*
X165740721Y-78790662D01*
X165740721Y-78790662D02*
X165712100Y-78869790D01*
X165712100Y-78869790D02*
X165710417Y-78921982D01*
X165710417Y-78921982D02*
X165733987Y-78999427D01*
X165733987Y-78999427D02*
X165835002Y-79100442D01*
X165835002Y-79100442D02*
X165912447Y-79124012D01*
X165912447Y-79124012D02*
X165964638Y-79122328D01*
X165964638Y-79122328D02*
X166043767Y-79093707D01*
X166043767Y-79093707D02*
X166501703Y-78635772D01*
X167006779Y-79140848D02*
X166754241Y-78888310D01*
X166754241Y-78888310D02*
X166459613Y-79132430D01*
X166459613Y-79132430D02*
X166511804Y-79130746D01*
X166511804Y-79130746D02*
X166589249Y-79154316D01*
X166589249Y-79154316D02*
X166715518Y-79280586D01*
X166715518Y-79280586D02*
X166739088Y-79358031D01*
X166739088Y-79358031D02*
X166737405Y-79410222D01*
X166737405Y-79410222D02*
X166708784Y-79489350D01*
X166708784Y-79489350D02*
X166574097Y-79624037D01*
X166574097Y-79624037D02*
X166494968Y-79652658D01*
X166494968Y-79652658D02*
X166442777Y-79654342D01*
X166442777Y-79654342D02*
X166365332Y-79630772D01*
X166365332Y-79630772D02*
X166239063Y-79504503D01*
X166239063Y-79504503D02*
X166215493Y-79427058D01*
X166215493Y-79427058D02*
X166217176Y-79374866D01*
%TO.C,U18*%
X141262747Y-123760180D02*
X141136403Y-124395355D01*
X141136403Y-124395355D02*
X141156567Y-124477049D01*
X141156567Y-124477049D02*
X141184163Y-124521380D01*
X141184163Y-124521380D02*
X141246787Y-124572678D01*
X141246787Y-124572678D02*
X141386900Y-124600548D01*
X141386900Y-124600548D02*
X141464388Y-124577120D01*
X141464388Y-124577120D02*
X141506848Y-124546724D01*
X141506848Y-124546724D02*
X141556740Y-124478965D01*
X141556740Y-124478965D02*
X141683084Y-123843790D01*
X142262600Y-124774736D02*
X141842264Y-124691126D01*
X142052432Y-124732931D02*
X142208504Y-123948303D01*
X142208504Y-123948303D02*
X142116152Y-124046457D01*
X142116152Y-124046457D02*
X142031232Y-124107249D01*
X142031232Y-124107249D02*
X141953744Y-124130677D01*
X142772121Y-124409987D02*
X142709497Y-124358689D01*
X142709497Y-124358689D02*
X142681901Y-124314358D01*
X142681901Y-124314358D02*
X142661737Y-124232664D01*
X142661737Y-124232664D02*
X142669169Y-124195301D01*
X142669169Y-124195301D02*
X142719061Y-124127542D01*
X142719061Y-124127542D02*
X142761521Y-124097146D01*
X142761521Y-124097146D02*
X142839009Y-124073718D01*
X142839009Y-124073718D02*
X142979122Y-124101588D01*
X142979122Y-124101588D02*
X143041746Y-124152886D01*
X143041746Y-124152886D02*
X143069342Y-124197217D01*
X143069342Y-124197217D02*
X143089506Y-124278911D01*
X143089506Y-124278911D02*
X143082074Y-124316274D01*
X143082074Y-124316274D02*
X143032182Y-124384033D01*
X143032182Y-124384033D02*
X142989722Y-124414429D01*
X142989722Y-124414429D02*
X142912234Y-124437857D01*
X142912234Y-124437857D02*
X142772121Y-124409987D01*
X142772121Y-124409987D02*
X142694633Y-124433415D01*
X142694633Y-124433415D02*
X142652173Y-124463811D01*
X142652173Y-124463811D02*
X142602281Y-124531570D01*
X142602281Y-124531570D02*
X142572553Y-124681023D01*
X142572553Y-124681023D02*
X142592717Y-124762717D01*
X142592717Y-124762717D02*
X142620313Y-124807048D01*
X142620313Y-124807048D02*
X142682937Y-124858346D01*
X142682937Y-124858346D02*
X142823049Y-124886216D01*
X142823049Y-124886216D02*
X142900538Y-124862788D01*
X142900538Y-124862788D02*
X142942998Y-124832392D01*
X142942998Y-124832392D02*
X142992890Y-124764633D01*
X142992890Y-124764633D02*
X143022618Y-124615180D01*
X143022618Y-124615180D02*
X143002454Y-124533486D01*
X143002454Y-124533486D02*
X142974858Y-124489155D01*
X142974858Y-124489155D02*
X142912234Y-124437857D01*
%TO.C,U27*%
X121760868Y-88456169D02*
X122359190Y-88704002D01*
X122359190Y-88704002D02*
X122443248Y-88700164D01*
X122443248Y-88700164D02*
X122492111Y-88681746D01*
X122492111Y-88681746D02*
X122554641Y-88630333D01*
X122554641Y-88630333D02*
X122609310Y-88498351D01*
X122609310Y-88498351D02*
X122601449Y-88417781D01*
X122601449Y-88417781D02*
X122579921Y-88370207D01*
X122579921Y-88370207D02*
X122523198Y-88308054D01*
X122523198Y-88308054D02*
X121924876Y-88060221D01*
X122118272Y-87792417D02*
X122096743Y-87744843D01*
X122096743Y-87744843D02*
X122088883Y-87664273D01*
X122088883Y-87664273D02*
X122157219Y-87499294D01*
X122157219Y-87499294D02*
X122219749Y-87447881D01*
X122219749Y-87447881D02*
X122268612Y-87429464D01*
X122268612Y-87429464D02*
X122352670Y-87425625D01*
X122352670Y-87425625D02*
X122423060Y-87454782D01*
X122423060Y-87454782D02*
X122514979Y-87531513D01*
X122514979Y-87531513D02*
X122773317Y-88102402D01*
X122773317Y-88102402D02*
X122950992Y-87673458D01*
X122307559Y-87136341D02*
X122498901Y-86674402D01*
X122498901Y-86674402D02*
X123114999Y-87277510D01*
%TO.C,U17*%
X146398847Y-124447493D02*
X146398847Y-125095112D01*
X146398847Y-125095112D02*
X146434561Y-125171302D01*
X146434561Y-125171302D02*
X146470276Y-125209398D01*
X146470276Y-125209398D02*
X146541704Y-125247493D01*
X146541704Y-125247493D02*
X146684561Y-125247493D01*
X146684561Y-125247493D02*
X146755990Y-125209398D01*
X146755990Y-125209398D02*
X146791704Y-125171302D01*
X146791704Y-125171302D02*
X146827418Y-125095112D01*
X146827418Y-125095112D02*
X146827418Y-124447493D01*
X147577418Y-125247493D02*
X147148847Y-125247493D01*
X147363132Y-125247493D02*
X147363132Y-124447493D01*
X147363132Y-124447493D02*
X147291704Y-124561778D01*
X147291704Y-124561778D02*
X147220275Y-124637969D01*
X147220275Y-124637969D02*
X147148847Y-124676064D01*
X147827418Y-124447493D02*
X148327418Y-124447493D01*
X148327418Y-124447493D02*
X148005990Y-125247493D01*
%TO.C,U21*%
X127988657Y-116058634D02*
X127530721Y-116516569D01*
X127530721Y-116516569D02*
X127502100Y-116595698D01*
X127502100Y-116595698D02*
X127500416Y-116647889D01*
X127500416Y-116647889D02*
X127523987Y-116725334D01*
X127523987Y-116725334D02*
X127625002Y-116826350D01*
X127625002Y-116826350D02*
X127702447Y-116849920D01*
X127702447Y-116849920D02*
X127754638Y-116848236D01*
X127754638Y-116848236D02*
X127833767Y-116819615D01*
X127833767Y-116819615D02*
X128291703Y-116361679D01*
X128465112Y-116642838D02*
X128517303Y-116641155D01*
X128517303Y-116641155D02*
X128594748Y-116664725D01*
X128594748Y-116664725D02*
X128721017Y-116790994D01*
X128721017Y-116790994D02*
X128744587Y-116868439D01*
X128744587Y-116868439D02*
X128742904Y-116920630D01*
X128742904Y-116920630D02*
X128714283Y-116999759D01*
X128714283Y-116999759D02*
X128660408Y-117053634D01*
X128660408Y-117053634D02*
X128554342Y-117109192D01*
X128554342Y-117109192D02*
X127928047Y-117129395D01*
X127928047Y-117129395D02*
X128256347Y-117457695D01*
X128761424Y-117962771D02*
X128458378Y-117659725D01*
X128609901Y-117811248D02*
X129175586Y-117245563D01*
X129175586Y-117245563D02*
X129044266Y-117275867D01*
X129044266Y-117275867D02*
X128939884Y-117279235D01*
X128939884Y-117279235D02*
X128862439Y-117255664D01*
%TO.C,U23*%
X122560907Y-107288501D02*
X121962585Y-107536334D01*
X121962585Y-107536334D02*
X121905861Y-107598486D01*
X121905861Y-107598486D02*
X121884333Y-107646061D01*
X121884333Y-107646061D02*
X121876472Y-107726630D01*
X121876472Y-107726630D02*
X121931141Y-107858613D01*
X121931141Y-107858613D02*
X121993671Y-107910026D01*
X121993671Y-107910026D02*
X122042534Y-107928443D01*
X122042534Y-107928443D02*
X122126592Y-107932282D01*
X122126592Y-107932282D02*
X122724914Y-107684449D01*
X122777528Y-108010567D02*
X122826391Y-108028984D01*
X122826391Y-108028984D02*
X122888921Y-108080397D01*
X122888921Y-108080397D02*
X122957257Y-108245376D01*
X122957257Y-108245376D02*
X122949396Y-108325946D01*
X122949396Y-108325946D02*
X122927868Y-108373520D01*
X122927868Y-108373520D02*
X122871145Y-108435672D01*
X122871145Y-108435672D02*
X122800754Y-108464829D01*
X122800754Y-108464829D02*
X122681500Y-108475569D01*
X122681500Y-108475569D02*
X122095148Y-108254561D01*
X122095148Y-108254561D02*
X122272823Y-108683505D01*
X123107597Y-108608329D02*
X123285272Y-109037273D01*
X123285272Y-109037273D02*
X122908038Y-108922930D01*
X122908038Y-108922930D02*
X122949039Y-109021917D01*
X122949039Y-109021917D02*
X122941179Y-109102487D01*
X122941179Y-109102487D02*
X122919650Y-109150061D01*
X122919650Y-109150061D02*
X122862927Y-109212214D01*
X122862927Y-109212214D02*
X122686950Y-109285106D01*
X122686950Y-109285106D02*
X122602892Y-109281267D01*
X122602892Y-109281267D02*
X122554029Y-109262850D01*
X122554029Y-109262850D02*
X122491499Y-109211437D01*
X122491499Y-109211437D02*
X122409496Y-109013463D01*
X122409496Y-109013463D02*
X122417356Y-108932893D01*
X122417356Y-108932893D02*
X122438885Y-108885319D01*
%TO.C,U11*%
X171374070Y-108990569D02*
X171972392Y-109238402D01*
X171972392Y-109238402D02*
X172056450Y-109234564D01*
X172056450Y-109234564D02*
X172105313Y-109216146D01*
X172105313Y-109216146D02*
X172167843Y-109164733D01*
X172167843Y-109164733D02*
X172222512Y-109032751D01*
X172222512Y-109032751D02*
X172214651Y-108952181D01*
X172214651Y-108952181D02*
X172193123Y-108904607D01*
X172193123Y-108904607D02*
X172136400Y-108842454D01*
X172136400Y-108842454D02*
X171538078Y-108594621D01*
X172564194Y-108207858D02*
X172400186Y-108603807D01*
X172482190Y-108405833D02*
X171743086Y-108099686D01*
X171743086Y-108099686D02*
X171821338Y-108209412D01*
X171821338Y-108209412D02*
X171864394Y-108304561D01*
X171864394Y-108304561D02*
X171872255Y-108385130D01*
X172837539Y-107547944D02*
X172673532Y-107943892D01*
X172755535Y-107745918D02*
X172016432Y-107439772D01*
X172016432Y-107439772D02*
X172094684Y-107549498D01*
X172094684Y-107549498D02*
X172137740Y-107644646D01*
X172137740Y-107644646D02*
X172145601Y-107725216D01*
%TO.C,U2*%
X152073812Y-71163893D02*
X151947468Y-71799068D01*
X151947468Y-71799068D02*
X151967632Y-71880762D01*
X151967632Y-71880762D02*
X151995228Y-71925093D01*
X151995228Y-71925093D02*
X152057852Y-71976391D01*
X152057852Y-71976391D02*
X152197964Y-72004261D01*
X152197964Y-72004261D02*
X152275452Y-71980833D01*
X152275452Y-71980833D02*
X152317912Y-71950437D01*
X152317912Y-71950437D02*
X152367804Y-71882678D01*
X152367804Y-71882678D02*
X152494149Y-71247503D01*
X152794537Y-71384937D02*
X152836997Y-71354541D01*
X152836997Y-71354541D02*
X152914485Y-71331113D01*
X152914485Y-71331113D02*
X153089625Y-71365951D01*
X153089625Y-71365951D02*
X153152249Y-71417249D01*
X153152249Y-71417249D02*
X153179845Y-71461580D01*
X153179845Y-71461580D02*
X153200009Y-71543274D01*
X153200009Y-71543274D02*
X153185145Y-71618000D01*
X153185145Y-71618000D02*
X153127821Y-71723123D01*
X153127821Y-71723123D02*
X152618300Y-72087871D01*
X152618300Y-72087871D02*
X153073665Y-72178449D01*
%TO.C,U25*%
X120042697Y-98965990D02*
X120690316Y-98965990D01*
X120690316Y-98965990D02*
X120766506Y-98930276D01*
X120766506Y-98930276D02*
X120804602Y-98894562D01*
X120804602Y-98894562D02*
X120842697Y-98823133D01*
X120842697Y-98823133D02*
X120842697Y-98680276D01*
X120842697Y-98680276D02*
X120804602Y-98608847D01*
X120804602Y-98608847D02*
X120766506Y-98573133D01*
X120766506Y-98573133D02*
X120690316Y-98537419D01*
X120690316Y-98537419D02*
X120042697Y-98537419D01*
X120118887Y-98215990D02*
X120080792Y-98180276D01*
X120080792Y-98180276D02*
X120042697Y-98108848D01*
X120042697Y-98108848D02*
X120042697Y-97930276D01*
X120042697Y-97930276D02*
X120080792Y-97858848D01*
X120080792Y-97858848D02*
X120118887Y-97823133D01*
X120118887Y-97823133D02*
X120195078Y-97787419D01*
X120195078Y-97787419D02*
X120271268Y-97787419D01*
X120271268Y-97787419D02*
X120385554Y-97823133D01*
X120385554Y-97823133D02*
X120842697Y-98251705D01*
X120842697Y-98251705D02*
X120842697Y-97787419D01*
X120042697Y-97108847D02*
X120042697Y-97465990D01*
X120042697Y-97465990D02*
X120423649Y-97501704D01*
X120423649Y-97501704D02*
X120385554Y-97465990D01*
X120385554Y-97465990D02*
X120347459Y-97394562D01*
X120347459Y-97394562D02*
X120347459Y-97215990D01*
X120347459Y-97215990D02*
X120385554Y-97144562D01*
X120385554Y-97144562D02*
X120423649Y-97108847D01*
X120423649Y-97108847D02*
X120499840Y-97073133D01*
X120499840Y-97073133D02*
X120690316Y-97073133D01*
X120690316Y-97073133D02*
X120766506Y-97108847D01*
X120766506Y-97108847D02*
X120804602Y-97144562D01*
X120804602Y-97144562D02*
X120842697Y-97215990D01*
X120842697Y-97215990D02*
X120842697Y-97394562D01*
X120842697Y-97394562D02*
X120804602Y-97465990D01*
X120804602Y-97465990D02*
X120766506Y-97501704D01*
%TO.C,U19*%
X136359428Y-122084070D02*
X136111595Y-122682392D01*
X136111595Y-122682392D02*
X136115433Y-122766450D01*
X136115433Y-122766450D02*
X136133851Y-122815313D01*
X136133851Y-122815313D02*
X136185264Y-122877843D01*
X136185264Y-122877843D02*
X136317246Y-122932512D01*
X136317246Y-122932512D02*
X136397816Y-122924651D01*
X136397816Y-122924651D02*
X136445390Y-122903123D01*
X136445390Y-122903123D02*
X136507543Y-122846400D01*
X136507543Y-122846400D02*
X136755376Y-122248078D01*
X137142139Y-123274194D02*
X136746190Y-123110186D01*
X136944164Y-123192190D02*
X137250311Y-122453086D01*
X137250311Y-122453086D02*
X137140585Y-122531338D01*
X137140585Y-122531338D02*
X137045436Y-122574394D01*
X137045436Y-122574394D02*
X136964867Y-122582255D01*
X137472096Y-123410866D02*
X137604079Y-123465535D01*
X137604079Y-123465535D02*
X137684649Y-123457675D01*
X137684649Y-123457675D02*
X137732223Y-123436146D01*
X137732223Y-123436146D02*
X137841949Y-123357895D01*
X137841949Y-123357895D02*
X137933259Y-123230780D01*
X137933259Y-123230780D02*
X138049886Y-122949217D01*
X138049886Y-122949217D02*
X138046047Y-122865159D01*
X138046047Y-122865159D02*
X138027630Y-122816296D01*
X138027630Y-122816296D02*
X137976217Y-122753766D01*
X137976217Y-122753766D02*
X137844234Y-122699097D01*
X137844234Y-122699097D02*
X137763664Y-122706958D01*
X137763664Y-122706958D02*
X137716090Y-122728486D01*
X137716090Y-122728486D02*
X137653938Y-122785210D01*
X137653938Y-122785210D02*
X137581046Y-122961187D01*
X137581046Y-122961187D02*
X137584884Y-123045245D01*
X137584884Y-123045245D02*
X137603302Y-123094108D01*
X137603302Y-123094108D02*
X137654715Y-123156638D01*
X137654715Y-123156638D02*
X137786697Y-123211307D01*
X137786697Y-123211307D02*
X137867267Y-123203446D01*
X137867267Y-123203446D02*
X137914841Y-123181918D01*
X137914841Y-123181918D02*
X137976994Y-123125194D01*
%TO.C,U15*%
X156578501Y-122789090D02*
X156826334Y-123387412D01*
X156826334Y-123387412D02*
X156888486Y-123444136D01*
X156888486Y-123444136D02*
X156936061Y-123465664D01*
X156936061Y-123465664D02*
X157016630Y-123473525D01*
X157016630Y-123473525D02*
X157148613Y-123418856D01*
X157148613Y-123418856D02*
X157200026Y-123356326D01*
X157200026Y-123356326D02*
X157218443Y-123307463D01*
X157218443Y-123307463D02*
X157222282Y-123223405D01*
X157222282Y-123223405D02*
X156974449Y-122625083D01*
X157973505Y-123077174D02*
X157577557Y-123241181D01*
X157775531Y-123159178D02*
X157469384Y-122420074D01*
X157469384Y-122420074D02*
X157447128Y-122552995D01*
X157447128Y-122552995D02*
X157410294Y-122650720D01*
X157410294Y-122650720D02*
X157358881Y-122713250D01*
X158294277Y-122078392D02*
X157964320Y-122215065D01*
X157964320Y-122215065D02*
X158077109Y-122580686D01*
X158077109Y-122580686D02*
X158095526Y-122531824D01*
X158095526Y-122531824D02*
X158146939Y-122469294D01*
X158146939Y-122469294D02*
X158311917Y-122400958D01*
X158311917Y-122400958D02*
X158392487Y-122408818D01*
X158392487Y-122408818D02*
X158440061Y-122430347D01*
X158440061Y-122430347D02*
X158502214Y-122487070D01*
X158502214Y-122487070D02*
X158575106Y-122663047D01*
X158575106Y-122663047D02*
X158571267Y-122747105D01*
X158571267Y-122747105D02*
X158552850Y-122795968D01*
X158552850Y-122795968D02*
X158501437Y-122858498D01*
X158501437Y-122858498D02*
X158336458Y-122926834D01*
X158336458Y-122926834D02*
X158255888Y-122918973D01*
X158255888Y-122918973D02*
X158208314Y-122897445D01*
%TO.C,U22*%
X124842891Y-111940861D02*
X124304415Y-112300659D01*
X124304415Y-112300659D02*
X124260907Y-112372684D01*
X124260907Y-112372684D02*
X124249073Y-112423543D01*
X124249073Y-112423543D02*
X124257082Y-112504099D01*
X124257082Y-112504099D02*
X124336449Y-112622880D01*
X124336449Y-112622880D02*
X124407808Y-112661106D01*
X124407808Y-112661106D02*
X124459325Y-112669637D01*
X124459325Y-112669637D02*
X124542516Y-112657003D01*
X124542516Y-112657003D02*
X125080992Y-112297205D01*
X125196218Y-112606792D02*
X125247735Y-112615323D01*
X125247735Y-112615323D02*
X125319093Y-112653549D01*
X125319093Y-112653549D02*
X125418302Y-112802026D01*
X125418302Y-112802026D02*
X125426311Y-112882581D01*
X125426311Y-112882581D02*
X125414478Y-112933441D01*
X125414478Y-112933441D02*
X125370969Y-113005466D01*
X125370969Y-113005466D02*
X125307619Y-113047795D01*
X125307619Y-113047795D02*
X125192752Y-113081593D01*
X125192752Y-113081593D02*
X124574551Y-112979224D01*
X124574551Y-112979224D02*
X124832494Y-113365263D01*
X125593054Y-113200699D02*
X125644571Y-113209230D01*
X125644571Y-113209230D02*
X125715929Y-113247456D01*
X125715929Y-113247456D02*
X125815138Y-113395933D01*
X125815138Y-113395933D02*
X125823147Y-113476488D01*
X125823147Y-113476488D02*
X125811314Y-113527348D01*
X125811314Y-113527348D02*
X125767805Y-113599373D01*
X125767805Y-113599373D02*
X125704455Y-113641702D01*
X125704455Y-113641702D02*
X125589589Y-113675500D01*
X125589589Y-113675500D02*
X124971387Y-113573131D01*
X124971387Y-113573131D02*
X125229330Y-113959171D01*
%TO.C,U14*%
X161230861Y-120507107D02*
X161590659Y-121045583D01*
X161590659Y-121045583D02*
X161662684Y-121089091D01*
X161662684Y-121089091D02*
X161713543Y-121100925D01*
X161713543Y-121100925D02*
X161794099Y-121092916D01*
X161794099Y-121092916D02*
X161912880Y-121013549D01*
X161912880Y-121013549D02*
X161951106Y-120942190D01*
X161951106Y-120942190D02*
X161959637Y-120890673D01*
X161959637Y-120890673D02*
X161947003Y-120807482D01*
X161947003Y-120807482D02*
X161587205Y-120269006D01*
X162655263Y-120517504D02*
X162298919Y-120755606D01*
X162477091Y-120636555D02*
X162032635Y-119971379D01*
X162032635Y-119971379D02*
X162036738Y-120106088D01*
X162036738Y-120106088D02*
X162019677Y-120209122D01*
X162019677Y-120209122D02*
X161981451Y-120280480D01*
X162893476Y-119716901D02*
X163189780Y-120160352D01*
X162575682Y-119562710D02*
X162744674Y-120137044D01*
X162744674Y-120137044D02*
X163130714Y-119879101D01*
%TO.C,U16*%
X151570343Y-124119596D02*
X151696687Y-124754771D01*
X151696687Y-124754771D02*
X151746579Y-124822530D01*
X151746579Y-124822530D02*
X151789039Y-124852926D01*
X151789039Y-124852926D02*
X151866527Y-124876354D01*
X151866527Y-124876354D02*
X152006640Y-124848484D01*
X152006640Y-124848484D02*
X152069264Y-124797185D01*
X152069264Y-124797185D02*
X152096860Y-124752855D01*
X152096860Y-124752855D02*
X152117024Y-124671161D01*
X152117024Y-124671161D02*
X151990679Y-124035985D01*
X152882340Y-124674296D02*
X152462004Y-124757906D01*
X152672172Y-124716101D02*
X152516100Y-123931473D01*
X152516100Y-123931473D02*
X152468340Y-124057498D01*
X152468340Y-124057498D02*
X152413148Y-124146159D01*
X152413148Y-124146159D02*
X152350524Y-124197457D01*
X153356773Y-123764252D02*
X153216661Y-123792123D01*
X153216661Y-123792123D02*
X153154037Y-123843421D01*
X153154037Y-123843421D02*
X153126441Y-123887752D01*
X153126441Y-123887752D02*
X153078681Y-124013776D01*
X153078681Y-124013776D02*
X153073381Y-124170197D01*
X153073381Y-124170197D02*
X153132837Y-124469103D01*
X153132837Y-124469103D02*
X153182729Y-124536862D01*
X153182729Y-124536862D02*
X153225189Y-124567258D01*
X153225189Y-124567258D02*
X153302677Y-124590686D01*
X153302677Y-124590686D02*
X153442789Y-124562816D01*
X153442789Y-124562816D02*
X153505413Y-124511517D01*
X153505413Y-124511517D02*
X153533010Y-124467187D01*
X153533010Y-124467187D02*
X153553174Y-124385493D01*
X153553174Y-124385493D02*
X153516013Y-124198676D01*
X153516013Y-124198676D02*
X153466121Y-124130917D01*
X153466121Y-124130917D02*
X153423661Y-124100522D01*
X153423661Y-124100522D02*
X153346173Y-124077093D01*
X153346173Y-124077093D02*
X153206061Y-124104964D01*
X153206061Y-124104964D02*
X153143437Y-124156262D01*
X153143437Y-124156262D02*
X153115841Y-124200593D01*
X153115841Y-124200593D02*
X153095677Y-124282287D01*
D11*
%TO.C,U24*%
X121739945Y-104239739D02*
X121310747Y-102082012D01*
X124289987Y-103732504D02*
X123821770Y-101378620D01*
X123821770Y-101378620D02*
X123625613Y-101417638D01*
%TO.C,U12*%
X169798778Y-111726880D02*
X168576523Y-113556113D01*
X167636957Y-110282397D02*
X166303588Y-112277924D01*
X166303588Y-112277924D02*
X166469882Y-112389038D01*
%TO.C,U1*%
X146220000Y-71730000D02*
X148420000Y-71730000D01*
X146220000Y-74330000D02*
X148620000Y-74330000D01*
X148620000Y-74330000D02*
X148620000Y-74130000D01*
%TO.C,U26*%
X121310747Y-93977987D02*
X121739945Y-91820260D01*
X123860789Y-94485222D02*
X124329005Y-92131338D01*
X124329005Y-92131338D02*
X124132848Y-92092319D01*
%TO.C,U28*%
X124841221Y-84333119D02*
X126063476Y-82503886D01*
X127003042Y-85777602D02*
X128336411Y-83782075D01*
X128336411Y-83782075D02*
X128170117Y-83670961D01*
%TO.C,U13*%
X166694725Y-115849090D02*
X165139090Y-117404725D01*
X164856248Y-114010613D02*
X163159191Y-115707669D01*
X163159191Y-115707669D02*
X163300613Y-115849090D01*
%TO.C,U32*%
X141110260Y-72449945D02*
X143267987Y-72020747D01*
X141617495Y-74999987D02*
X143971379Y-74531770D01*
X143971379Y-74531770D02*
X143932361Y-74335613D01*
%TO.C,U29*%
X127945274Y-80210909D02*
X129500909Y-78655274D01*
X129783751Y-82049386D02*
X131480808Y-80352330D01*
X131480808Y-80352330D02*
X131339386Y-80210909D01*
%TO.C,U7*%
X171197080Y-86949158D02*
X172038983Y-88981693D01*
X168794993Y-87944135D02*
X169713433Y-90161446D01*
X169713433Y-90161446D02*
X169898209Y-90084909D01*
%TO.C,U8*%
X172900054Y-91820260D02*
X173329252Y-93977987D01*
X170350012Y-92327495D02*
X170818229Y-94681379D01*
X170818229Y-94681379D02*
X171014386Y-94642361D01*
%TO.C,U6*%
X168576523Y-82503886D02*
X169798778Y-84333119D01*
X166414702Y-83948369D02*
X167748071Y-85943896D01*
X167748071Y-85943896D02*
X167914365Y-85832782D01*
%TO.C,U30*%
X131793886Y-76773476D02*
X133623119Y-75551221D01*
X133238369Y-78935297D02*
X135233896Y-77601928D01*
X135233896Y-77601928D02*
X135122782Y-77435634D01*
%TO.C,U10*%
X173329252Y-102082012D02*
X172900054Y-104239739D01*
X170779210Y-101574777D02*
X170310994Y-103928661D01*
X170310994Y-103928661D02*
X170507151Y-103967680D01*
%TO.C,U9*%
X173620000Y-96930000D02*
X173620000Y-99130000D01*
X171020000Y-96930000D02*
X171020000Y-99330000D01*
X171020000Y-99330000D02*
X171220000Y-99330000D01*
%TO.C,U31*%
X136239158Y-74152919D02*
X138271693Y-73311016D01*
X137234135Y-76555006D02*
X139451446Y-75636566D01*
X139451446Y-75636566D02*
X139374909Y-75451790D01*
%TO.C,U3*%
X156368306Y-73311016D02*
X158400841Y-74152919D01*
X155373329Y-75713103D02*
X157590640Y-76631543D01*
X157590640Y-76631543D02*
X157667177Y-76446767D01*
%TO.C,U20*%
X133623119Y-120508778D02*
X131793886Y-119286523D01*
X135067602Y-118346957D02*
X133072075Y-117013588D01*
X133072075Y-117013588D02*
X132960961Y-117179882D01*
%TO.C,U4*%
X161016880Y-75551221D02*
X162846113Y-76773476D01*
X159572397Y-77713042D02*
X161567924Y-79046411D01*
X161567924Y-79046411D02*
X161679038Y-78880117D01*
%TO.C,U5*%
X165139090Y-78655274D02*
X166694725Y-80210909D01*
X163300613Y-80493751D02*
X164997669Y-82190808D01*
X164997669Y-82190808D02*
X165139090Y-82049386D01*
%TO.C,U18*%
X143267987Y-124039252D02*
X141110260Y-123610054D01*
X143775222Y-121489210D02*
X141421338Y-121020994D01*
X141421338Y-121020994D02*
X141382319Y-121217151D01*
%TO.C,U27*%
X122601016Y-88981693D02*
X123442919Y-86949158D01*
X125003103Y-89976670D02*
X125921543Y-87759359D01*
X125921543Y-87759359D02*
X125736767Y-87682822D01*
%TO.C,U17*%
X148420000Y-124330000D02*
X146220000Y-124330000D01*
X148420000Y-121730000D02*
X146020000Y-121730000D01*
X146020000Y-121730000D02*
X146020000Y-121930000D01*
%TO.C,U21*%
X129500909Y-117404725D02*
X127945274Y-115849090D01*
X131339386Y-115566248D02*
X129642330Y-113869191D01*
X129642330Y-113869191D02*
X129500909Y-114010613D01*
%TO.C,U23*%
X123442919Y-109110841D02*
X122601016Y-107078306D01*
X125845006Y-108115864D02*
X124926566Y-105898553D01*
X124926566Y-105898553D02*
X124741790Y-105975090D01*
%TO.C,U11*%
X172038983Y-107078306D02*
X171197080Y-109110841D01*
X169636896Y-106083329D02*
X168718456Y-108300640D01*
X168718456Y-108300640D02*
X168903232Y-108377177D01*
%TO.C,U2*%
X151372012Y-72020747D02*
X153529739Y-72449945D01*
X150864777Y-74570789D02*
X153218661Y-75039005D01*
X153218661Y-75039005D02*
X153257680Y-74842848D01*
%TO.C,U25*%
X121020000Y-99130000D02*
X121020000Y-96930000D01*
X123620000Y-99130000D02*
X123620000Y-96730000D01*
X123620000Y-96730000D02*
X123420000Y-96730000D01*
%TO.C,U19*%
X138271693Y-122748983D02*
X136239158Y-121907080D01*
X139266670Y-120346896D02*
X137049359Y-119428456D01*
X137049359Y-119428456D02*
X136972822Y-119613232D01*
%TO.C,U15*%
X158400841Y-121907080D02*
X156368306Y-122748983D01*
X157405864Y-119504993D02*
X155188553Y-120423433D01*
X155188553Y-120423433D02*
X155265090Y-120608209D01*
%TO.C,U22*%
X126063476Y-113556113D02*
X124841221Y-111726880D01*
X128225297Y-112111630D02*
X126891928Y-110116103D01*
X126891928Y-110116103D02*
X126725634Y-110227217D01*
%TO.C,U14*%
X162846113Y-119286523D02*
X161016880Y-120508778D01*
X161401630Y-117124702D02*
X159406103Y-118458071D01*
X159406103Y-118458071D02*
X159517217Y-118624365D01*
%TO.C,J1*%
X145762934Y-74700882D02*
X145071281Y-74769004D01*
X145695792Y-74019180D02*
X145762934Y-74700882D01*
X145628651Y-73337479D02*
X145444869Y-71471507D01*
X145628651Y-73337479D02*
X145542344Y-73345979D01*
X145444869Y-71471507D02*
X145145809Y-71500962D01*
X144360622Y-71578296D02*
X144061562Y-71607751D01*
X144331650Y-73465222D02*
X144245344Y-73473722D01*
X144245344Y-73473722D02*
X144061562Y-71607751D01*
%TO.C,U16*%
X153529739Y-123610054D02*
X151372012Y-124039252D01*
X153022504Y-121060012D02*
X150668620Y-121528229D01*
X150668620Y-121528229D02*
X150707638Y-121724386D01*
%TD*%
M02*
