M48
; DRILL file {KiCad 7.0.1-0} date 2023 November 10, Friday 13:36:52
; FORMAT={-:-/ absolute / inch / decimal}
; #@! TF.CreationDate,2023-11-10T13:36:52-08:00
; #@! TF.GenerationSoftware,Kicad,Pcbnew,7.0.1-0
; #@! TF.FileFunction,Plated,1,2,PTH
FMAT,2
INCH
; #@! TA.AperFunction,Plated,PTH,ComponentDrill
T1C0.0197
; #@! TA.AperFunction,Plated,PTH,ViaDrill
T2C0.0236
%
G90
G05
T1
X5.7011Y-2.8385
X5.705Y-2.8776
X5.7088Y-2.9168
T2
X4.7312Y-3.8217
X4.7449Y-4.0323
X4.759Y-3.6168
X4.798Y-4.2324
X4.8263Y-3.4179
X4.8901Y-4.4211
X4.9305Y-3.2372
X5.0176Y-4.59
X5.0708Y-3.076
X5.1743Y-4.7269
X5.2367Y-2.9499
X5.3567Y-4.8308
X5.4255Y-2.8586
X5.5538Y-4.9009
X5.628Y-2.8069
X5.7625Y-2.7912
X5.7649Y-4.9282
X5.8375Y-2.7905
X5.9722Y-4.9154
X6.0442Y-2.8202
X6.1776Y-4.8603
X6.2422Y-2.8862
X6.3628Y-4.7676
X6.4236Y-2.991
X6.5284Y-4.6414
X6.5826Y-3.1307
X6.6697Y-4.4811
X6.7097Y-3.2979
X6.7738Y-4.3026
X6.8017Y-3.484
X6.8413Y-4.102
X6.8553Y-3.6866
X6.8673Y-3.8972
T0
M30
