%TF.GenerationSoftware,KiCad,Pcbnew,7.0.1-0*%
%TF.CreationDate,2023-11-10T13:36:55-08:00*%
%TF.ProjectId,ws2816b_ring_revA,77733238-3136-4625-9f72-696e675f7265,A*%
%TF.SameCoordinates,Original*%
%TF.FileFunction,Copper,L1,Top*%
%TF.FilePolarity,Positive*%
%FSLAX46Y46*%
G04 Gerber Fmt 4.6, Leading zero omitted, Abs format (unit mm)*
G04 Created by KiCad (PCBNEW 7.0.1-0) date 2023-11-10 13:36:55*
%MOMM*%
%LPD*%
G01*
G04 APERTURE LIST*
G04 Aperture macros list*
%AMHorizOval*
0 Thick line with rounded ends*
0 $1 width*
0 $2 $3 position (X,Y) of the first rounded end (center of the circle)*
0 $4 $5 position (X,Y) of the second rounded end (center of the circle)*
0 Add line between two ends*
20,1,$1,$2,$3,$4,$5,0*
0 Add two circle primitives to create the rounded ends*
1,1,$1,$2,$3*
1,1,$1,$4,$5*%
%AMRotRect*
0 Rectangle, with rotation*
0 The origin of the aperture is its center*
0 $1 length*
0 $2 width*
0 $3 Rotation angle, in degrees counterclockwise*
0 Add horizontal line*
21,1,$1,$2,0,0,$3*%
G04 Aperture macros list end*
%TA.AperFunction,SMDPad,CuDef*%
%ADD10RotRect,0.700000X0.320000X101.250000*%
%TD*%
%TA.AperFunction,SMDPad,CuDef*%
%ADD11RotRect,0.700000X0.320000X236.250000*%
%TD*%
%TA.AperFunction,SMDPad,CuDef*%
%ADD12R,0.700000X0.320000*%
%TD*%
%TA.AperFunction,SMDPad,CuDef*%
%ADD13RotRect,0.700000X0.320000X78.750000*%
%TD*%
%TA.AperFunction,SMDPad,CuDef*%
%ADD14RotRect,0.700000X0.320000X56.250000*%
%TD*%
%TA.AperFunction,SMDPad,CuDef*%
%ADD15RotRect,0.700000X0.320000X225.000000*%
%TD*%
%TA.AperFunction,SMDPad,CuDef*%
%ADD16RotRect,0.700000X0.320000X11.250000*%
%TD*%
%TA.AperFunction,SMDPad,CuDef*%
%ADD17RotRect,0.700000X0.320000X45.000000*%
%TD*%
%TA.AperFunction,SMDPad,CuDef*%
%ADD18RotRect,0.700000X0.320000X292.500000*%
%TD*%
%TA.AperFunction,SMDPad,CuDef*%
%ADD19RotRect,0.700000X0.320000X281.250000*%
%TD*%
%TA.AperFunction,SMDPad,CuDef*%
%ADD20RotRect,0.700000X0.320000X303.750000*%
%TD*%
%TA.AperFunction,SMDPad,CuDef*%
%ADD21RotRect,0.700000X0.320000X33.750000*%
%TD*%
%TA.AperFunction,SMDPad,CuDef*%
%ADD22RotRect,0.700000X0.320000X258.750000*%
%TD*%
%TA.AperFunction,SMDPad,CuDef*%
%ADD23R,0.320000X0.700000*%
%TD*%
%TA.AperFunction,SMDPad,CuDef*%
%ADD24RotRect,0.700000X0.320000X22.500000*%
%TD*%
%TA.AperFunction,SMDPad,CuDef*%
%ADD25RotRect,0.700000X0.320000X337.500000*%
%TD*%
%TA.AperFunction,SMDPad,CuDef*%
%ADD26RotRect,0.700000X0.320000X146.250000*%
%TD*%
%TA.AperFunction,SMDPad,CuDef*%
%ADD27RotRect,0.700000X0.320000X326.250000*%
%TD*%
%TA.AperFunction,SMDPad,CuDef*%
%ADD28RotRect,0.700000X0.320000X315.000000*%
%TD*%
%TA.AperFunction,SMDPad,CuDef*%
%ADD29RotRect,0.700000X0.320000X168.750000*%
%TD*%
%TA.AperFunction,SMDPad,CuDef*%
%ADD30RotRect,0.700000X0.320000X67.500000*%
%TD*%
%TA.AperFunction,SMDPad,CuDef*%
%ADD31RotRect,0.700000X0.320000X135.000000*%
%TD*%
%TA.AperFunction,SMDPad,CuDef*%
%ADD32RotRect,0.700000X0.320000X112.500000*%
%TD*%
%TA.AperFunction,SMDPad,CuDef*%
%ADD33RotRect,0.700000X0.320000X247.500000*%
%TD*%
%TA.AperFunction,SMDPad,CuDef*%
%ADD34RotRect,0.700000X0.320000X348.750000*%
%TD*%
%TA.AperFunction,SMDPad,CuDef*%
%ADD35RotRect,0.700000X0.320000X157.500000*%
%TD*%
%TA.AperFunction,SMDPad,CuDef*%
%ADD36RotRect,0.700000X0.320000X202.500000*%
%TD*%
%TA.AperFunction,SMDPad,CuDef*%
%ADD37RotRect,0.700000X0.320000X123.750000*%
%TD*%
%TA.AperFunction,SMDPad,CuDef*%
%ADD38RotRect,0.700000X0.320000X213.750000*%
%TD*%
%TA.AperFunction,ComponentPad*%
%ADD39RotRect,0.850000X0.850000X185.625000*%
%TD*%
%TA.AperFunction,ComponentPad*%
%ADD40HorizOval,0.850000X0.000000X0.000000X0.000000X0.000000X0*%
%TD*%
%TA.AperFunction,SMDPad,CuDef*%
%ADD41RotRect,0.700000X0.320000X191.250000*%
%TD*%
%TA.AperFunction,ViaPad*%
%ADD42C,1.200000*%
%TD*%
%TA.AperFunction,Conductor*%
%ADD43C,0.250000*%
%TD*%
%TA.AperFunction,Conductor*%
%ADD44C,0.750000*%
%TD*%
G04 APERTURE END LIST*
D10*
%TO.P,U24,1,BI*%
%TO.N,Net-(U23-BO)*%
X122366833Y-103957007D03*
%TO.P,U24,2,DI*%
%TO.N,Net-(U23-DO)*%
X122984727Y-103834100D03*
%TO.P,U24,3,VDD*%
%TO.N,+5V*%
X123602622Y-103711193D03*
%TO.P,U24,4,DO*%
%TO.N,Net-(U24-DO)*%
X123233901Y-101857509D03*
%TO.P,U24,5,BO*%
%TO.N,Net-(U24-BO)*%
X122616007Y-101980416D03*
%TO.P,U24,6,GND*%
%TO.N,GND*%
X121998112Y-102103323D03*
%TD*%
D11*
%TO.P,U12,1,BI*%
%TO.N,Net-(U11-BO)*%
X169155580Y-111483525D03*
%TO.P,U12,2,DI*%
%TO.N,Net-(U11-DO)*%
X168631754Y-111133516D03*
%TO.P,U12,3,VDD*%
%TO.N,+5V*%
X168107928Y-110783507D03*
%TO.P,U12,4,DO*%
%TO.N,Net-(U12-DO)*%
X167057900Y-112354985D03*
%TO.P,U12,5,BO*%
%TO.N,Net-(U12-BO)*%
X167581726Y-112704994D03*
%TO.P,U12,6,GND*%
%TO.N,GND*%
X168105552Y-113055003D03*
%TD*%
D12*
%TO.P,U1,1,BI*%
%TO.N,GND*%
X146375000Y-72400000D03*
%TO.P,U1,2,DI*%
%TO.N,DIN*%
X146375000Y-73030000D03*
%TO.P,U1,3,VDD*%
%TO.N,+5V*%
X146375000Y-73660000D03*
%TO.P,U1,4,DO*%
%TO.N,Net-(U1-DO)*%
X148265000Y-73660000D03*
%TO.P,U1,5,BO*%
%TO.N,Net-(U1-BO)*%
X148265000Y-73030000D03*
%TO.P,U1,6,GND*%
%TO.N,GND*%
X148265000Y-72400000D03*
%TD*%
D13*
%TO.P,U26,1,BI*%
%TO.N,Net-(U25-BO)*%
X121998112Y-93956676D03*
%TO.P,U26,2,DI*%
%TO.N,Net-(U25-DO)*%
X122616007Y-94079583D03*
%TO.P,U26,3,VDD*%
%TO.N,+5V*%
X123233901Y-94202490D03*
%TO.P,U26,4,DO*%
%TO.N,Net-(U26-DO)*%
X123602622Y-92348806D03*
%TO.P,U26,5,BO*%
%TO.N,Net-(U26-BO)*%
X122984727Y-92225899D03*
%TO.P,U26,6,GND*%
%TO.N,GND*%
X122366833Y-92102992D03*
%TD*%
D14*
%TO.P,U28,1,BI*%
%TO.N,Net-(U27-BO)*%
X125484419Y-84576474D03*
%TO.P,U28,2,DI*%
%TO.N,Net-(U27-DO)*%
X126008245Y-84926483D03*
%TO.P,U28,3,VDD*%
%TO.N,+5V*%
X126532071Y-85276492D03*
%TO.P,U28,4,DO*%
%TO.N,Net-(U28-DO)*%
X127582099Y-83705014D03*
%TO.P,U28,5,BO*%
%TO.N,Net-(U28-BO)*%
X127058273Y-83355005D03*
%TO.P,U28,6,GND*%
%TO.N,GND*%
X126534447Y-83004996D03*
%TD*%
D15*
%TO.P,U13,1,BI*%
%TO.N,Net-(U12-BO)*%
X166111362Y-115484930D03*
%TO.P,U13,2,DI*%
%TO.N,Net-(U12-DO)*%
X165665885Y-115039453D03*
%TO.P,U13,3,VDD*%
%TO.N,+5V*%
X165220408Y-114593976D03*
%TO.P,U13,4,DO*%
%TO.N,Net-(U13-DO)*%
X163883976Y-115930408D03*
%TO.P,U13,5,BO*%
%TO.N,Net-(U13-BO)*%
X164329453Y-116375885D03*
%TO.P,U13,6,GND*%
%TO.N,GND*%
X164774930Y-116821362D03*
%TD*%
D16*
%TO.P,U32,1,BI*%
%TO.N,Net-(U31-BO)*%
X141392992Y-73076833D03*
%TO.P,U32,2,DI*%
%TO.N,Net-(U31-DO)*%
X141515899Y-73694727D03*
%TO.P,U32,3,VDD*%
%TO.N,+5V*%
X141638806Y-74312622D03*
%TO.P,U32,4,DO*%
%TO.N,unconnected-(U32-DO-Pad4)*%
X143492490Y-73943901D03*
%TO.P,U32,5,BO*%
%TO.N,unconnected-(U32-BO-Pad5)*%
X143369583Y-73326007D03*
%TO.P,U32,6,GND*%
%TO.N,GND*%
X143246676Y-72708112D03*
%TD*%
D17*
%TO.P,U29,1,BI*%
%TO.N,Net-(U28-BO)*%
X128528637Y-80575069D03*
%TO.P,U29,2,DI*%
%TO.N,Net-(U28-DO)*%
X128974114Y-81020546D03*
%TO.P,U29,3,VDD*%
%TO.N,+5V*%
X129419591Y-81466023D03*
%TO.P,U29,4,DO*%
%TO.N,Net-(U29-DO)*%
X130756023Y-80129591D03*
%TO.P,U29,5,BO*%
%TO.N,Net-(U29-BO)*%
X130310546Y-79684114D03*
%TO.P,U29,6,GND*%
%TO.N,GND*%
X129865069Y-79238637D03*
%TD*%
D18*
%TO.P,U7,1,BI*%
%TO.N,Net-(U6-BO)*%
X170637396Y-87348757D03*
%TO.P,U7,2,DI*%
%TO.N,Net-(U6-DO)*%
X170055352Y-87589848D03*
%TO.P,U7,3,VDD*%
%TO.N,+5V*%
X169473308Y-87830938D03*
%TO.P,U7,4,DO*%
%TO.N,Net-(U7-DO)*%
X170196580Y-89577071D03*
%TO.P,U7,5,BO*%
%TO.N,Net-(U7-BO)*%
X170778624Y-89335980D03*
%TO.P,U7,6,GND*%
%TO.N,GND*%
X171360668Y-89094890D03*
%TD*%
D19*
%TO.P,U8,1,BI*%
%TO.N,Net-(U7-BO)*%
X172273166Y-92102992D03*
%TO.P,U8,2,DI*%
%TO.N,Net-(U7-DO)*%
X171655272Y-92225899D03*
%TO.P,U8,3,VDD*%
%TO.N,+5V*%
X171037377Y-92348806D03*
%TO.P,U8,4,DO*%
%TO.N,Net-(U8-DO)*%
X171406098Y-94202490D03*
%TO.P,U8,5,BO*%
%TO.N,Net-(U8-BO)*%
X172023992Y-94079583D03*
%TO.P,U8,6,GND*%
%TO.N,GND*%
X172641887Y-93956676D03*
%TD*%
D20*
%TO.P,U6,1,BI*%
%TO.N,Net-(U5-BO)*%
X168105552Y-83004996D03*
%TO.P,U6,2,DI*%
%TO.N,Net-(U5-DO)*%
X167581726Y-83355005D03*
%TO.P,U6,3,VDD*%
%TO.N,+5V*%
X167057900Y-83705014D03*
%TO.P,U6,4,DO*%
%TO.N,Net-(U6-DO)*%
X168107928Y-85276492D03*
%TO.P,U6,5,BO*%
%TO.N,Net-(U6-BO)*%
X168631754Y-84926483D03*
%TO.P,U6,6,GND*%
%TO.N,GND*%
X169155580Y-84576474D03*
%TD*%
D21*
%TO.P,U30,1,BI*%
%TO.N,Net-(U29-BO)*%
X132294996Y-77244447D03*
%TO.P,U30,2,DI*%
%TO.N,Net-(U29-DO)*%
X132645005Y-77768273D03*
%TO.P,U30,3,VDD*%
%TO.N,+5V*%
X132995014Y-78292099D03*
%TO.P,U30,4,DO*%
%TO.N,Net-(U30-DO)*%
X134566492Y-77242071D03*
%TO.P,U30,5,BO*%
%TO.N,Net-(U30-BO)*%
X134216483Y-76718245D03*
%TO.P,U30,6,GND*%
%TO.N,GND*%
X133866474Y-76194419D03*
%TD*%
D22*
%TO.P,U10,1,BI*%
%TO.N,Net-(U10-BI)*%
X172641887Y-102103323D03*
%TO.P,U10,2,DI*%
%TO.N,Net-(U10-DI)*%
X172023992Y-101980416D03*
%TO.P,U10,3,VDD*%
%TO.N,+5V*%
X171406098Y-101857509D03*
%TO.P,U10,4,DO*%
%TO.N,Net-(U10-DO)*%
X171037377Y-103711193D03*
%TO.P,U10,5,BO*%
%TO.N,Net-(U10-BO)*%
X171655272Y-103834100D03*
%TO.P,U10,6,GND*%
%TO.N,GND*%
X172273166Y-103957007D03*
%TD*%
D23*
%TO.P,U9,1,BI*%
%TO.N,Net-(U8-BO)*%
X172950000Y-97085000D03*
%TO.P,U9,2,DI*%
%TO.N,Net-(U8-DO)*%
X172320000Y-97085000D03*
%TO.P,U9,3,VDD*%
%TO.N,+5V*%
X171690000Y-97085000D03*
%TO.P,U9,4,DO*%
%TO.N,Net-(U10-DI)*%
X171690000Y-98975000D03*
%TO.P,U9,5,BO*%
%TO.N,Net-(U10-BI)*%
X172320000Y-98975000D03*
%TO.P,U9,6,GND*%
%TO.N,GND*%
X172950000Y-98975000D03*
%TD*%
D24*
%TO.P,U31,1,BI*%
%TO.N,Net-(U30-BO)*%
X136638757Y-74712603D03*
%TO.P,U31,2,DI*%
%TO.N,Net-(U30-DO)*%
X136879848Y-75294647D03*
%TO.P,U31,3,VDD*%
%TO.N,+5V*%
X137120938Y-75876691D03*
%TO.P,U31,4,DO*%
%TO.N,Net-(U31-DO)*%
X138867071Y-75153419D03*
%TO.P,U31,5,BO*%
%TO.N,Net-(U31-BO)*%
X138625980Y-74571375D03*
%TO.P,U31,6,GND*%
%TO.N,GND*%
X138384890Y-73989331D03*
%TD*%
D25*
%TO.P,U3,1,BI*%
%TO.N,Net-(U2-BO)*%
X156255109Y-73989331D03*
%TO.P,U3,2,DI*%
%TO.N,Net-(U2-DO)*%
X156014019Y-74571375D03*
%TO.P,U3,3,VDD*%
%TO.N,+5V*%
X155772928Y-75153419D03*
%TO.P,U3,4,DO*%
%TO.N,Net-(U3-DO)*%
X157519061Y-75876691D03*
%TO.P,U3,5,BO*%
%TO.N,Net-(U3-BO)*%
X157760151Y-75294647D03*
%TO.P,U3,6,GND*%
%TO.N,GND*%
X158001242Y-74712603D03*
%TD*%
D26*
%TO.P,U20,1,BI*%
%TO.N,Net-(U19-BO)*%
X133866474Y-119865580D03*
%TO.P,U20,2,DI*%
%TO.N,Net-(U19-DO)*%
X134216483Y-119341754D03*
%TO.P,U20,3,VDD*%
%TO.N,+5V*%
X134566492Y-118817928D03*
%TO.P,U20,4,DO*%
%TO.N,Net-(U20-DO)*%
X132995014Y-117767900D03*
%TO.P,U20,5,BO*%
%TO.N,Net-(U20-BO)*%
X132645005Y-118291726D03*
%TO.P,U20,6,GND*%
%TO.N,GND*%
X132294996Y-118815552D03*
%TD*%
D27*
%TO.P,U4,1,BI*%
%TO.N,Net-(U3-BO)*%
X160773525Y-76194419D03*
%TO.P,U4,2,DI*%
%TO.N,Net-(U3-DO)*%
X160423516Y-76718245D03*
%TO.P,U4,3,VDD*%
%TO.N,+5V*%
X160073507Y-77242071D03*
%TO.P,U4,4,DO*%
%TO.N,Net-(U4-DO)*%
X161644985Y-78292099D03*
%TO.P,U4,5,BO*%
%TO.N,Net-(U4-BO)*%
X161994994Y-77768273D03*
%TO.P,U4,6,GND*%
%TO.N,GND*%
X162345003Y-77244447D03*
%TD*%
D28*
%TO.P,U5,1,BI*%
%TO.N,Net-(U4-BO)*%
X164774930Y-79238637D03*
%TO.P,U5,2,DI*%
%TO.N,Net-(U4-DO)*%
X164329453Y-79684114D03*
%TO.P,U5,3,VDD*%
%TO.N,+5V*%
X163883976Y-80129591D03*
%TO.P,U5,4,DO*%
%TO.N,Net-(U5-DO)*%
X165220408Y-81466023D03*
%TO.P,U5,5,BO*%
%TO.N,Net-(U5-BO)*%
X165665885Y-81020546D03*
%TO.P,U5,6,GND*%
%TO.N,GND*%
X166111362Y-80575069D03*
%TD*%
D29*
%TO.P,U18,1,BI*%
%TO.N,Net-(U17-BO)*%
X143246676Y-123351887D03*
%TO.P,U18,2,DI*%
%TO.N,Net-(U17-DO)*%
X143369583Y-122733992D03*
%TO.P,U18,3,VDD*%
%TO.N,+5V*%
X143492490Y-122116098D03*
%TO.P,U18,4,DO*%
%TO.N,Net-(U18-DO)*%
X141638806Y-121747377D03*
%TO.P,U18,5,BO*%
%TO.N,Net-(U18-BO)*%
X141515899Y-122365272D03*
%TO.P,U18,6,GND*%
%TO.N,GND*%
X141392992Y-122983166D03*
%TD*%
D30*
%TO.P,U27,1,BI*%
%TO.N,Net-(U26-BO)*%
X123279331Y-89094890D03*
%TO.P,U27,2,DI*%
%TO.N,Net-(U26-DO)*%
X123861375Y-89335980D03*
%TO.P,U27,3,VDD*%
%TO.N,+5V*%
X124443419Y-89577071D03*
%TO.P,U27,4,DO*%
%TO.N,Net-(U27-DO)*%
X125166691Y-87830938D03*
%TO.P,U27,5,BO*%
%TO.N,Net-(U27-BO)*%
X124584647Y-87589848D03*
%TO.P,U27,6,GND*%
%TO.N,GND*%
X124002603Y-87348757D03*
%TD*%
D12*
%TO.P,U17,1,BI*%
%TO.N,Net-(U16-BO)*%
X148265000Y-123660000D03*
%TO.P,U17,2,DI*%
%TO.N,Net-(U16-DO)*%
X148265000Y-123030000D03*
%TO.P,U17,3,VDD*%
%TO.N,+5V*%
X148265000Y-122400000D03*
%TO.P,U17,4,DO*%
%TO.N,Net-(U17-DO)*%
X146375000Y-122400000D03*
%TO.P,U17,5,BO*%
%TO.N,Net-(U17-BO)*%
X146375000Y-123030000D03*
%TO.P,U17,6,GND*%
%TO.N,GND*%
X146375000Y-123660000D03*
%TD*%
D31*
%TO.P,U21,1,BI*%
%TO.N,Net-(U20-BO)*%
X129865069Y-116821362D03*
%TO.P,U21,2,DI*%
%TO.N,Net-(U20-DO)*%
X130310546Y-116375885D03*
%TO.P,U21,3,VDD*%
%TO.N,+5V*%
X130756023Y-115930408D03*
%TO.P,U21,4,DO*%
%TO.N,Net-(U21-DO)*%
X129419591Y-114593976D03*
%TO.P,U21,5,BO*%
%TO.N,Net-(U21-BO)*%
X128974114Y-115039453D03*
%TO.P,U21,6,GND*%
%TO.N,GND*%
X128528637Y-115484930D03*
%TD*%
D32*
%TO.P,U23,1,BI*%
%TO.N,Net-(U22-BO)*%
X124002603Y-108711242D03*
%TO.P,U23,2,DI*%
%TO.N,Net-(U22-DO)*%
X124584647Y-108470151D03*
%TO.P,U23,3,VDD*%
%TO.N,+5V*%
X125166691Y-108229061D03*
%TO.P,U23,4,DO*%
%TO.N,Net-(U23-DO)*%
X124443419Y-106482928D03*
%TO.P,U23,5,BO*%
%TO.N,Net-(U23-BO)*%
X123861375Y-106724019D03*
%TO.P,U23,6,GND*%
%TO.N,GND*%
X123279331Y-106965109D03*
%TD*%
D33*
%TO.P,U11,1,BI*%
%TO.N,Net-(U10-BO)*%
X171360668Y-106965109D03*
%TO.P,U11,2,DI*%
%TO.N,Net-(U10-DO)*%
X170778624Y-106724019D03*
%TO.P,U11,3,VDD*%
%TO.N,+5V*%
X170196580Y-106482928D03*
%TO.P,U11,4,DO*%
%TO.N,Net-(U11-DO)*%
X169473308Y-108229061D03*
%TO.P,U11,5,BO*%
%TO.N,Net-(U11-BO)*%
X170055352Y-108470151D03*
%TO.P,U11,6,GND*%
%TO.N,GND*%
X170637396Y-108711242D03*
%TD*%
D34*
%TO.P,U2,1,BI*%
%TO.N,Net-(U1-BO)*%
X151393323Y-72708112D03*
%TO.P,U2,2,DI*%
%TO.N,Net-(U1-DO)*%
X151270416Y-73326007D03*
%TO.P,U2,3,VDD*%
%TO.N,+5V*%
X151147509Y-73943901D03*
%TO.P,U2,4,DO*%
%TO.N,Net-(U2-DO)*%
X153001193Y-74312622D03*
%TO.P,U2,5,BO*%
%TO.N,Net-(U2-BO)*%
X153124100Y-73694727D03*
%TO.P,U2,6,GND*%
%TO.N,GND*%
X153247007Y-73076833D03*
%TD*%
D23*
%TO.P,U25,1,BI*%
%TO.N,Net-(U24-BO)*%
X121690000Y-98975000D03*
%TO.P,U25,2,DI*%
%TO.N,Net-(U24-DO)*%
X122320000Y-98975000D03*
%TO.P,U25,3,VDD*%
%TO.N,+5V*%
X122950000Y-98975000D03*
%TO.P,U25,4,DO*%
%TO.N,Net-(U25-DO)*%
X122950000Y-97085000D03*
%TO.P,U25,5,BO*%
%TO.N,Net-(U25-BO)*%
X122320000Y-97085000D03*
%TO.P,U25,6,GND*%
%TO.N,GND*%
X121690000Y-97085000D03*
%TD*%
D35*
%TO.P,U19,1,BI*%
%TO.N,Net-(U18-BO)*%
X138384890Y-122070668D03*
%TO.P,U19,2,DI*%
%TO.N,Net-(U18-DO)*%
X138625980Y-121488624D03*
%TO.P,U19,3,VDD*%
%TO.N,+5V*%
X138867071Y-120906580D03*
%TO.P,U19,4,DO*%
%TO.N,Net-(U19-DO)*%
X137120938Y-120183308D03*
%TO.P,U19,5,BO*%
%TO.N,Net-(U19-BO)*%
X136879848Y-120765352D03*
%TO.P,U19,6,GND*%
%TO.N,GND*%
X136638757Y-121347396D03*
%TD*%
D36*
%TO.P,U15,1,BI*%
%TO.N,Net-(U14-BO)*%
X158001242Y-121347396D03*
%TO.P,U15,2,DI*%
%TO.N,Net-(U14-DO)*%
X157760151Y-120765352D03*
%TO.P,U15,3,VDD*%
%TO.N,+5V*%
X157519061Y-120183308D03*
%TO.P,U15,4,DO*%
%TO.N,Net-(U15-DO)*%
X155772928Y-120906580D03*
%TO.P,U15,5,BO*%
%TO.N,Net-(U15-BO)*%
X156014019Y-121488624D03*
%TO.P,U15,6,GND*%
%TO.N,GND*%
X156255109Y-122070668D03*
%TD*%
D37*
%TO.P,U22,1,BI*%
%TO.N,Net-(U21-BO)*%
X126534447Y-113055003D03*
%TO.P,U22,2,DI*%
%TO.N,Net-(U21-DO)*%
X127058273Y-112704994D03*
%TO.P,U22,3,VDD*%
%TO.N,+5V*%
X127582099Y-112354985D03*
%TO.P,U22,4,DO*%
%TO.N,Net-(U22-DO)*%
X126532071Y-110783507D03*
%TO.P,U22,5,BO*%
%TO.N,Net-(U22-BO)*%
X126008245Y-111133516D03*
%TO.P,U22,6,GND*%
%TO.N,GND*%
X125484419Y-111483525D03*
%TD*%
D38*
%TO.P,U14,1,BI*%
%TO.N,Net-(U13-BO)*%
X162345003Y-118815552D03*
%TO.P,U14,2,DI*%
%TO.N,Net-(U13-DO)*%
X161994994Y-118291726D03*
%TO.P,U14,3,VDD*%
%TO.N,+5V*%
X161644985Y-117767900D03*
%TO.P,U14,4,DO*%
%TO.N,Net-(U14-DO)*%
X160073507Y-118817928D03*
%TO.P,U14,5,BO*%
%TO.N,Net-(U14-BO)*%
X160423516Y-119341754D03*
%TO.P,U14,6,GND*%
%TO.N,GND*%
X160773525Y-119865580D03*
%TD*%
D39*
%TO.P,J1,1,Pin_1*%
%TO.N,+5V*%
X145004139Y-74087302D03*
D40*
%TO.P,J1,2,Pin_2*%
%TO.N,DIN*%
X144906122Y-73092117D03*
%TO.P,J1,3,Pin_3*%
%TO.N,GND*%
X144808105Y-72096933D03*
%TD*%
D41*
%TO.P,U16,1,BI*%
%TO.N,Net-(U15-BO)*%
X153247007Y-122983166D03*
%TO.P,U16,2,DI*%
%TO.N,Net-(U15-DO)*%
X153124100Y-122365272D03*
%TO.P,U16,3,VDD*%
%TO.N,+5V*%
X153001193Y-121747377D03*
%TO.P,U16,4,DO*%
%TO.N,Net-(U16-DO)*%
X151147509Y-122116098D03*
%TO.P,U16,5,BO*%
%TO.N,Net-(U16-BO)*%
X151270416Y-122733992D03*
%TO.P,U16,6,GND*%
%TO.N,GND*%
X151393323Y-123351887D03*
%TD*%
D42*
%TO.N,GND*%
X121870126Y-107504134D03*
X165821735Y-117892480D03*
X136060716Y-122701313D03*
X153523283Y-71633728D03*
X120171941Y-97071120D03*
X173768546Y-104190685D03*
X125233524Y-82224958D03*
X131426175Y-120062956D03*
X120877622Y-91866800D03*
X120519311Y-102420995D03*
X151693296Y-124850090D03*
X137808719Y-72607628D03*
X163159549Y-75970575D03*
X174124516Y-93639244D03*
X128799306Y-78131548D03*
X146368155Y-70896523D03*
X122587669Y-86814113D03*
X142950396Y-71295241D03*
X146427800Y-125176689D03*
X148271844Y-70879969D03*
X172764232Y-88492573D03*
X158551579Y-73309797D03*
X127448149Y-116584992D03*
X167197066Y-79520904D03*
X172055514Y-109285548D03*
X170426815Y-83766498D03*
X133011457Y-74928551D03*
X161616102Y-121097325D03*
X174429470Y-98988436D03*
X156911589Y-123451878D03*
X141066890Y-124481994D03*
X169409175Y-113820382D03*
X124209765Y-112296016D03*
%TD*%
D43*
%TO.N,+5V*%
X169469928Y-87803989D02*
X168405871Y-88244736D01*
X124430191Y-89630439D02*
X125494245Y-90071187D01*
X170212992Y-106469222D02*
X169148936Y-106028475D01*
X160037878Y-77228256D02*
X159398013Y-78185881D01*
X145211418Y-75335999D02*
X145131197Y-75271327D01*
X143469643Y-122125438D02*
X143694334Y-120995844D01*
X165197228Y-114585432D02*
X164382835Y-113771038D01*
X129423813Y-81438596D02*
X130238204Y-82252990D01*
X171027847Y-92321204D02*
X169898250Y-92545895D01*
X126491204Y-85346627D02*
X127448827Y-85986493D01*
X137120136Y-75901930D02*
X137560880Y-76965986D01*
X132978791Y-78293890D02*
X133618654Y-79251516D01*
X171411989Y-101787932D02*
X170282393Y-101563241D01*
X171649440Y-97091592D02*
X170497713Y-97091592D01*
X163890016Y-80145411D02*
X163075622Y-80959804D01*
X123615978Y-103739035D02*
X124745573Y-103514346D01*
X157600172Y-120157576D02*
X157159427Y-119093520D01*
X167061474Y-83733832D02*
X166103848Y-84373697D01*
X161648768Y-117731986D02*
X161008904Y-116774360D01*
X151120529Y-73990286D02*
X150895838Y-75119881D01*
X125164428Y-108192718D02*
X126228484Y-107751973D01*
X155735252Y-75152320D02*
X155294505Y-76216376D01*
X122951970Y-98967964D02*
X124103694Y-98967965D01*
X123234178Y-94269553D02*
X124363772Y-94494245D01*
X146375000Y-74811726D02*
X146385638Y-74822364D01*
X141632357Y-74391908D02*
X141857045Y-75521503D01*
X138877042Y-120858792D02*
X139317789Y-119794737D01*
X130755197Y-115960486D02*
X131569591Y-115146094D01*
X148324643Y-122396660D02*
X148324644Y-121244936D01*
X127575104Y-112328683D02*
X128532730Y-111688819D01*
X134547844Y-118805277D02*
X135187709Y-117847653D01*
X146375000Y-73660000D02*
X146375000Y-74811726D01*
X153011335Y-121753423D02*
X152786646Y-120623828D01*
D44*
X145004139Y-74087302D02*
X145131197Y-75271327D01*
D43*
X168151495Y-110698713D02*
X167193870Y-110058848D01*
%TO.N,DIN*%
X144968239Y-73030000D02*
X144906122Y-73092117D01*
X146375000Y-73030000D02*
X144968239Y-73030000D01*
%TO.N,GND*%
X153220027Y-73123217D02*
X153515235Y-71639105D01*
X166117402Y-80590889D02*
X167187387Y-79520903D01*
X123989379Y-87402126D02*
X122591372Y-86823052D01*
X146368155Y-70896523D02*
X146375000Y-70903368D01*
X128527813Y-115515005D02*
X127457825Y-116584993D01*
X146434643Y-123656657D02*
X146434643Y-125169848D01*
X148265000Y-72400000D02*
X148265000Y-70886813D01*
X160777307Y-119829663D02*
X161617991Y-121087834D01*
X138384091Y-74014574D02*
X137805018Y-72616566D01*
X172279057Y-103887430D02*
X173763170Y-104182638D01*
X141370145Y-122992504D02*
X141074936Y-124476619D01*
X169159153Y-84605292D02*
X170417322Y-83764609D01*
X143240231Y-72787402D02*
X142945022Y-71303285D01*
X146375000Y-70903368D02*
X146375000Y-72400000D01*
X133850255Y-76196214D02*
X133009571Y-74938040D01*
X170653807Y-108697535D02*
X172051811Y-109276607D01*
X148271844Y-71192611D02*
X148271844Y-70879969D01*
X123277072Y-106928764D02*
X121879065Y-107507837D01*
X156336220Y-122044933D02*
X156915293Y-123442938D01*
X132276349Y-118802897D02*
X131435665Y-120061069D01*
X122367114Y-92170054D02*
X120882998Y-91874845D01*
X164751749Y-116812817D02*
X165821736Y-117882803D01*
X168149117Y-112970208D02*
X169407288Y-113810891D01*
X136648729Y-121299605D02*
X136069656Y-122697611D01*
X172632357Y-93929075D02*
X174116469Y-93633866D01*
X148265000Y-70886813D02*
X148271844Y-70879969D01*
X157963565Y-74711504D02*
X158542637Y-73313501D01*
X171357288Y-89067941D02*
X172755290Y-88488868D01*
X121691974Y-97077962D02*
X120178783Y-97077962D01*
X151403464Y-123357930D02*
X151698673Y-124842045D01*
X122011472Y-102131162D02*
X120527356Y-102426371D01*
X125477428Y-111457220D02*
X124219255Y-112297904D01*
X172909439Y-98981593D02*
X174422627Y-98981592D01*
X162309374Y-77230633D02*
X163150056Y-75972463D01*
X126493585Y-83075132D02*
X125235412Y-82234447D01*
X148267092Y-71197363D02*
X148271844Y-71192611D01*
X129869295Y-79211212D02*
X128799307Y-78141223D01*
%TO.N,Net-(U1-DO)*%
X149777525Y-73660000D02*
X148265000Y-73660000D01*
X150111518Y-73326007D02*
X149777525Y-73660000D01*
X151270416Y-73326007D02*
X150111518Y-73326007D01*
%TO.N,Net-(U1-BO)*%
X149564456Y-73030000D02*
X149886344Y-72708112D01*
X149886344Y-72708112D02*
X151393323Y-72708112D01*
X148265000Y-73030000D02*
X149564456Y-73030000D01*
%TO.N,Net-(U2-DO)*%
X154457675Y-74654085D02*
X152974213Y-74359006D01*
X154850409Y-74391669D02*
X154457675Y-74654085D01*
X155987039Y-74617758D02*
X154850409Y-74391669D01*
%TO.N,Net-(U2-BO)*%
X154750107Y-73741717D02*
X156228130Y-74035714D01*
X154371607Y-73994623D02*
X154750107Y-73741717D01*
X153097120Y-73741112D02*
X154371607Y-73994623D01*
%TO.N,Net-(U3-DO)*%
X160385839Y-76717145D02*
X159315157Y-76273654D01*
X158878775Y-76454410D02*
X157481384Y-75875591D01*
X159315157Y-76273654D02*
X158878775Y-76454410D01*
%TO.N,Net-(U3-BO)*%
X159343582Y-75616623D02*
X160735849Y-76193319D01*
X157722475Y-75293548D02*
X158923015Y-75790828D01*
X158923015Y-75790828D02*
X159343582Y-75616623D01*
%TO.N,Net-(U4-DO)*%
X163330235Y-79026449D02*
X162866974Y-79118598D01*
X164293823Y-79670298D02*
X163330235Y-79026449D01*
X162866974Y-79118598D02*
X161609355Y-78278283D01*
%TO.N,Net-(U4-BO)*%
X163039822Y-78476397D02*
X163486294Y-78387588D01*
X163486294Y-78387588D02*
X164739301Y-79224821D01*
X161959365Y-77754459D02*
X163039822Y-78476397D01*
%TO.N,Net-(U5-DO)*%
X166768301Y-82551359D02*
X166295964Y-82551360D01*
X167587765Y-83370823D02*
X166768301Y-82551359D01*
X166295964Y-82551360D02*
X165226447Y-81481842D01*
%TO.N,Net-(U5-BO)*%
X167045997Y-81955219D02*
X168111592Y-83020814D01*
X166590778Y-81955219D02*
X167045997Y-81955219D01*
X165671925Y-81036366D02*
X166590778Y-81955219D01*
%TO.N,Net-(U6-DO)*%
X170058925Y-87618664D02*
X169415076Y-86655076D01*
X168951815Y-86562929D02*
X168111501Y-85305309D01*
X169415076Y-86655076D02*
X168951815Y-86562929D01*
%TO.N,Net-(U6-BO)*%
X169357265Y-86035758D02*
X169803738Y-86124567D01*
X169803738Y-86124567D02*
X170640970Y-87377574D01*
X168635327Y-84955301D02*
X169357265Y-86035758D01*
%TO.N,Net-(U7-DO)*%
X170772017Y-90947513D02*
X170193199Y-89550121D01*
X171651891Y-92198949D02*
X171208400Y-91128267D01*
X171208400Y-91128267D02*
X170772017Y-90947513D01*
%TO.N,Net-(U7-BO)*%
X171693091Y-90683776D02*
X172269786Y-92076043D01*
X171272523Y-90509571D02*
X171693091Y-90683776D01*
X170775243Y-89309032D02*
X171272523Y-90509571D01*
%TO.N,Net-(U8-DO)*%
X172310470Y-97057396D02*
X172084381Y-95920766D01*
X171691646Y-95658351D02*
X171396567Y-94174888D01*
X172084381Y-95920766D02*
X171691646Y-95658351D01*
%TO.N,Net-(U8-BO)*%
X172267973Y-95326468D02*
X172646474Y-95579374D01*
X172014462Y-94051982D02*
X172267973Y-95326468D01*
X172646474Y-95579374D02*
X172940470Y-97057397D01*
%TO.N,Net-(U10-DI)*%
X171983433Y-100828109D02*
X171649439Y-100494117D01*
X171983432Y-101987007D02*
X171983433Y-100828109D01*
X171649439Y-100494117D02*
X171649439Y-98981592D01*
%TO.N,Net-(U10-BI)*%
X172279439Y-98981593D02*
X172279439Y-100281047D01*
X172279439Y-100281047D02*
X172601328Y-100602936D01*
X172601328Y-100602936D02*
X172601327Y-102109915D01*
%TO.N,Net-(U10-DO)*%
X170784516Y-106654441D02*
X171010607Y-105517811D01*
X170748189Y-105125078D02*
X171043268Y-103641616D01*
X171010607Y-105517811D02*
X170748189Y-105125078D01*
%TO.N,Net-(U10-BO)*%
X171661162Y-103764524D02*
X171407651Y-105039009D01*
X171660558Y-105417510D02*
X171366560Y-106895533D01*
X171407651Y-105039009D02*
X171660558Y-105417510D01*
%TO.N,Net-(U11-DO)*%
X169091659Y-110049126D02*
X168910901Y-109612744D01*
X168648167Y-111119808D02*
X169091659Y-110049126D01*
X168910901Y-109612744D02*
X169489720Y-108215354D01*
%TO.N,Net-(U11-BO)*%
X169748689Y-110077552D02*
X169171992Y-111469819D01*
X169574483Y-109656984D02*
X169748689Y-110077552D01*
X170071763Y-108456445D02*
X169574483Y-109656984D01*
%TO.N,Net-(U12-DO)*%
X166353303Y-113991069D02*
X166261152Y-113527808D01*
X166261152Y-113527808D02*
X167101467Y-112270190D01*
X165709453Y-114954657D02*
X166353303Y-113991069D01*
%TO.N,Net-(U12-BO)*%
X166903353Y-113700656D02*
X166992163Y-114147129D01*
X166992163Y-114147129D02*
X166154929Y-115400136D01*
X167625291Y-112620200D02*
X166903353Y-113700656D01*
%TO.N,Net-(U13-DO)*%
X162791281Y-117463716D02*
X162791279Y-116991379D01*
X161971816Y-118283180D02*
X162791281Y-117463716D01*
X162791279Y-116991379D02*
X163860796Y-115921863D01*
%TO.N,Net-(U13-BO)*%
X163387420Y-117741413D02*
X162321824Y-118807007D01*
X164306272Y-116367341D02*
X163387419Y-117286193D01*
X163387419Y-117286193D02*
X163387420Y-117741413D01*
%TO.N,Net-(U14-DO)*%
X158819671Y-119622326D02*
X160077290Y-118782013D01*
X158727525Y-120085587D02*
X158819671Y-119622326D01*
X157763936Y-120729436D02*
X158727525Y-120085587D01*
%TO.N,Net-(U14-BO)*%
X159346841Y-120027776D02*
X159258033Y-120474249D01*
X160427298Y-119305839D02*
X159346841Y-120027776D01*
X159258033Y-120474249D02*
X158005025Y-121311481D01*
%TO.N,Net-(U15-DO)*%
X153205213Y-122339538D02*
X154275896Y-121896047D01*
X154275896Y-121896047D02*
X154456649Y-121459664D01*
X154456649Y-121459664D02*
X155854040Y-120880847D01*
%TO.N,Net-(U15-BO)*%
X156095129Y-121462891D02*
X154894590Y-121960170D01*
X154720386Y-122380738D02*
X153328118Y-122957433D01*
X154894590Y-121960170D02*
X154720386Y-122380738D01*
%TO.N,Net-(U16-DO)*%
X149674189Y-122417221D02*
X151157651Y-122122143D01*
X148275144Y-123036045D02*
X149411775Y-122809956D01*
X149411775Y-122809956D02*
X149674189Y-122417221D01*
%TO.N,Net-(U16-BO)*%
X150006071Y-122993548D02*
X149753166Y-123372049D01*
X151280556Y-122740038D02*
X150006071Y-122993548D01*
X149753166Y-123372049D02*
X148275142Y-123666045D01*
%TO.N,Net-(U17-DO)*%
X143429229Y-122730652D02*
X144588128Y-122730653D01*
X144588128Y-122730653D02*
X144922119Y-122396659D01*
X144922119Y-122396659D02*
X146434643Y-122396660D01*
%TO.N,Net-(U17-BO)*%
X145135188Y-123026659D02*
X144813301Y-123348548D01*
X144813301Y-123348548D02*
X143306321Y-123348547D01*
X146434641Y-123026660D02*
X145135188Y-123026659D01*
%TO.N,Net-(U18-DO)*%
X140132497Y-121461638D02*
X141615958Y-121756717D01*
X138603134Y-121497965D02*
X139739765Y-121724056D01*
X139739765Y-121724056D02*
X140132497Y-121461638D01*
%TO.N,Net-(U18-BO)*%
X140218565Y-122121100D02*
X139840066Y-122374007D01*
X141493049Y-122374612D02*
X140218565Y-122121100D01*
X139840066Y-122374007D02*
X138362042Y-122080009D01*
%TO.N,Net-(U19-DO)*%
X134226456Y-119293967D02*
X135297139Y-119737459D01*
X135733520Y-119556701D02*
X137130909Y-120135519D01*
X135297139Y-119737459D02*
X135733520Y-119556701D01*
%TO.N,Net-(U19-BO)*%
X136889817Y-120717563D02*
X135689279Y-120220283D01*
X135689279Y-120220283D02*
X135268713Y-120394489D01*
X135268713Y-120394489D02*
X133876445Y-119817792D01*
%TO.N,Net-(U20-DO)*%
X131718749Y-116914934D02*
X132976366Y-117755248D01*
X131255489Y-117007085D02*
X131718749Y-116914934D01*
X130291900Y-116363235D02*
X131255489Y-117007085D01*
%TO.N,Net-(U20-BO)*%
X131099429Y-117645945D02*
X129846421Y-116808711D01*
X132626355Y-118279073D02*
X131545900Y-117557135D01*
X131545900Y-117557135D02*
X131099429Y-117645945D01*
%TO.N,Net-(U21-DO)*%
X128349250Y-113554537D02*
X129418765Y-114624053D01*
X127876914Y-113554539D02*
X128349250Y-113554537D01*
X127057449Y-112735074D02*
X127876914Y-113554539D01*
%TO.N,Net-(U21-BO)*%
X127599217Y-114150678D02*
X126533622Y-113085082D01*
X128054435Y-114150677D02*
X127599217Y-114150678D01*
X128973287Y-115069529D02*
X128054435Y-114150677D01*
%TO.N,Net-(U22-DO)*%
X125221504Y-109407440D02*
X125684764Y-109499586D01*
X124577654Y-108443851D02*
X125221504Y-109407440D01*
X125684764Y-109499586D02*
X126525076Y-110757204D01*
%TO.N,Net-(U22-BO)*%
X126001250Y-111107212D02*
X125279313Y-110026756D01*
X124832841Y-109937948D02*
X123995609Y-108684940D01*
X125279313Y-110026756D02*
X124832841Y-109937948D01*
%TO.N,Net-(U23-DO)*%
X123425958Y-104868442D02*
X123862340Y-105049195D01*
X123862340Y-105049195D02*
X124441156Y-106446585D01*
X122982466Y-103797759D02*
X123425958Y-104868442D01*
%TO.N,Net-(U23-BO)*%
X123859112Y-106687674D02*
X123361833Y-105487136D01*
X123361833Y-105487136D02*
X122941266Y-105312932D01*
X122941266Y-105312932D02*
X122364571Y-103920664D01*
%TO.N,Net-(U24-DO)*%
X122333356Y-99002844D02*
X122559446Y-100139475D01*
X122952180Y-100401889D02*
X123247257Y-101885350D01*
X122559446Y-100139475D02*
X122952180Y-100401889D01*
%TO.N,Net-(U24-BO)*%
X122629363Y-102008255D02*
X122375852Y-100733771D01*
X122375852Y-100733771D02*
X121997352Y-100480866D01*
X121997352Y-100480866D02*
X121703356Y-99002842D01*
%TO.N,Net-(U25-DO)*%
X122951971Y-95565440D02*
X122951969Y-97077963D01*
X122617978Y-95231449D02*
X122951971Y-95565440D01*
X122617978Y-94072550D02*
X122617978Y-95231449D01*
%TO.N,Net-(U25-BO)*%
X122321970Y-97077961D02*
X122321970Y-95778509D01*
X122000082Y-95456622D02*
X122000083Y-93949642D01*
X122321970Y-95778509D02*
X122000082Y-95456622D01*
%TO.N,Net-(U26-DO)*%
X123861651Y-89403045D02*
X123635561Y-90539676D01*
X123635561Y-90539676D02*
X123897978Y-90932408D01*
X123897978Y-90932408D02*
X123602898Y-92415868D01*
%TO.N,Net-(U26-BO)*%
X122985609Y-90639977D02*
X123279607Y-89161953D01*
X122985005Y-92292959D02*
X123238515Y-91018476D01*
X123238515Y-91018476D02*
X122985609Y-90639977D01*
%TO.N,Net-(U27-DO)*%
X125551524Y-86050537D02*
X125732281Y-86486918D01*
X125732281Y-86486918D02*
X125153462Y-87884306D01*
X125995015Y-84979854D02*
X125551524Y-86050537D01*
%TO.N,Net-(U27-BO)*%
X124894493Y-86022111D02*
X125471190Y-84629843D01*
X125068698Y-86442677D02*
X124894493Y-86022111D01*
X124571420Y-87643214D02*
X125068698Y-86442677D01*
%TO.N,Net-(U28-DO)*%
X128933245Y-81090684D02*
X128289396Y-82054273D01*
X128381546Y-82517533D02*
X127541232Y-83775149D01*
X128289396Y-82054273D02*
X128381546Y-82517533D01*
%TO.N,Net-(U28-BO)*%
X127017408Y-83425138D02*
X127739344Y-82344683D01*
X127739344Y-82344683D02*
X127650535Y-81898213D01*
X127650535Y-81898213D02*
X128487769Y-80645205D01*
%TO.N,Net-(U29-DO)*%
X131829761Y-79032650D02*
X130760245Y-80102164D01*
X131829760Y-78560314D02*
X131829761Y-79032650D01*
X132649224Y-77740849D02*
X131829760Y-78560314D01*
%TO.N,Net-(U29-BO)*%
X130314770Y-79656686D02*
X131233621Y-78737834D01*
X131233620Y-78282617D02*
X132299216Y-77217021D01*
X131233621Y-78737834D02*
X131233620Y-78282617D01*
%TO.N,Net-(U30-DO)*%
X135900034Y-75940291D02*
X135807887Y-76403551D01*
X136863622Y-75296441D02*
X135900034Y-75940291D01*
X135807887Y-76403551D02*
X134550269Y-77243862D01*
%TO.N,Net-(U30-BO)*%
X135280717Y-75998099D02*
X135369524Y-75551628D01*
X134200262Y-76720036D02*
X135280717Y-75998099D01*
X135369524Y-75551628D02*
X136622533Y-74714395D01*
%TO.N,Net-(U31-DO)*%
X140444412Y-74163461D02*
X140263658Y-74599842D01*
X140263658Y-74599842D02*
X138866269Y-75178658D01*
X141515094Y-73719969D02*
X140444412Y-74163461D01*
%TO.N,Net-(U31-BO)*%
X139825717Y-74099335D02*
X139999920Y-73678768D01*
X139999920Y-73678768D02*
X141392189Y-73102073D01*
X138625180Y-74596614D02*
X139825717Y-74099335D01*
%TD*%
%TA.AperFunction,Conductor*%
%TO.N,+5V*%
G36*
X148278251Y-74799808D02*
G01*
X148283364Y-74800019D01*
X149237440Y-74859253D01*
X149242526Y-74859676D01*
X150193335Y-74958285D01*
X150198360Y-74958912D01*
X151144304Y-75096732D01*
X151149301Y-75097566D01*
X152088744Y-75274360D01*
X152093756Y-75275411D01*
X153025054Y-75490869D01*
X153029981Y-75492116D01*
X153951617Y-75745886D01*
X153956514Y-75747344D01*
X154866833Y-76038970D01*
X154871644Y-76040621D01*
X155420798Y-76241927D01*
X155769148Y-76369623D01*
X155773923Y-76371486D01*
X156657060Y-76737293D01*
X156661753Y-76739352D01*
X157529011Y-77141339D01*
X157533574Y-77143570D01*
X158383513Y-77581069D01*
X158387968Y-77583479D01*
X159219121Y-78055742D01*
X159223492Y-78058347D01*
X160034362Y-78564516D01*
X160038652Y-78567319D01*
X160827918Y-79106570D01*
X160832090Y-79109549D01*
X161598412Y-79680968D01*
X161602448Y-79684109D01*
X162344492Y-80286699D01*
X162348345Y-80289962D01*
X163066797Y-80924419D01*
X163758406Y-81588014D01*
X163761985Y-81591593D01*
X164292287Y-82144282D01*
X164423800Y-82281347D01*
X164427271Y-82285117D01*
X165060024Y-83001639D01*
X165063303Y-83005511D01*
X165665884Y-83747543D01*
X165669031Y-83751587D01*
X166240450Y-84517909D01*
X166243429Y-84522081D01*
X166782680Y-85311347D01*
X166785483Y-85315637D01*
X167291642Y-86126491D01*
X167294266Y-86130894D01*
X167766505Y-86962005D01*
X167768944Y-86966513D01*
X168206419Y-87816404D01*
X168208670Y-87821009D01*
X168610647Y-88688246D01*
X168612706Y-88692939D01*
X168978513Y-89576076D01*
X168980376Y-89580851D01*
X169309371Y-90478337D01*
X169311035Y-90483185D01*
X169602652Y-91393478D01*
X169604115Y-91398390D01*
X169857877Y-92319997D01*
X169859135Y-92324966D01*
X170074587Y-93256239D01*
X170075639Y-93261255D01*
X170252428Y-94200669D01*
X170253271Y-94205724D01*
X170391083Y-95151608D01*
X170391717Y-95156694D01*
X170490322Y-96107462D01*
X170490746Y-96112570D01*
X170549979Y-97066631D01*
X170550191Y-97071752D01*
X170569947Y-98027436D01*
X170569947Y-98032562D01*
X170550191Y-98988247D01*
X170549979Y-98993368D01*
X170490746Y-99947429D01*
X170490322Y-99952537D01*
X170391717Y-100903305D01*
X170391083Y-100908391D01*
X170253271Y-101854275D01*
X170252428Y-101859330D01*
X170075639Y-102798744D01*
X170074587Y-102803760D01*
X169859135Y-103735033D01*
X169857877Y-103740002D01*
X169604115Y-104661609D01*
X169602652Y-104666521D01*
X169311035Y-105576814D01*
X169309371Y-105581662D01*
X168980376Y-106479148D01*
X168978513Y-106483923D01*
X168612706Y-107367060D01*
X168610647Y-107371753D01*
X168208670Y-108238990D01*
X168206419Y-108243595D01*
X167768944Y-109093486D01*
X167766505Y-109097994D01*
X167294266Y-109929105D01*
X167291642Y-109933508D01*
X166785483Y-110744362D01*
X166782680Y-110748652D01*
X166243429Y-111537918D01*
X166240450Y-111542090D01*
X165669031Y-112308412D01*
X165665884Y-112312456D01*
X165458005Y-112568444D01*
X165063323Y-113054463D01*
X165060024Y-113058359D01*
X164499269Y-113693351D01*
X164499269Y-113693352D01*
X164425581Y-113776797D01*
X164319784Y-113887060D01*
X163762008Y-114468383D01*
X163758383Y-114472008D01*
X163068652Y-115133800D01*
X163064882Y-115137271D01*
X162348360Y-115770024D01*
X162344463Y-115773323D01*
X162027213Y-116030952D01*
X161602456Y-116375884D01*
X161598412Y-116379031D01*
X160832090Y-116950450D01*
X160827918Y-116953429D01*
X160038652Y-117492680D01*
X160034362Y-117495483D01*
X159223508Y-118001642D01*
X159219105Y-118004266D01*
X158387994Y-118476505D01*
X158383486Y-118478944D01*
X157533595Y-118916419D01*
X157528990Y-118918670D01*
X156661753Y-119320647D01*
X156657060Y-119322706D01*
X155773923Y-119688513D01*
X155769148Y-119690376D01*
X154871662Y-120019371D01*
X154866814Y-120021035D01*
X153956521Y-120312652D01*
X153951609Y-120314115D01*
X153030002Y-120567877D01*
X153025033Y-120569135D01*
X152093760Y-120784587D01*
X152088744Y-120785639D01*
X151149330Y-120962428D01*
X151144275Y-120963271D01*
X150198391Y-121101083D01*
X150193305Y-121101717D01*
X149242537Y-121200322D01*
X149237429Y-121200746D01*
X148283368Y-121259979D01*
X148278247Y-121260191D01*
X147322563Y-121279947D01*
X147317437Y-121279947D01*
X146361752Y-121260191D01*
X146356631Y-121259979D01*
X145402570Y-121200746D01*
X145397462Y-121200322D01*
X144446694Y-121101717D01*
X144441608Y-121101083D01*
X143495724Y-120963271D01*
X143490669Y-120962428D01*
X142551255Y-120785639D01*
X142546239Y-120784587D01*
X141614966Y-120569135D01*
X141609997Y-120567877D01*
X140688390Y-120314115D01*
X140683478Y-120312652D01*
X139773185Y-120021035D01*
X139768337Y-120019371D01*
X138870851Y-119690376D01*
X138866076Y-119688513D01*
X137982939Y-119322706D01*
X137978246Y-119320647D01*
X137111009Y-118918670D01*
X137106404Y-118916419D01*
X136256503Y-118478939D01*
X136252005Y-118476505D01*
X135557697Y-118081998D01*
X135420893Y-118004265D01*
X135416491Y-118001642D01*
X134605637Y-117495483D01*
X134601347Y-117492680D01*
X133812081Y-116953429D01*
X133807909Y-116950450D01*
X133041587Y-116379031D01*
X133037543Y-116375884D01*
X132896967Y-116261727D01*
X132295511Y-115773303D01*
X132291639Y-115770024D01*
X131680453Y-115230293D01*
X131573203Y-115135581D01*
X130881593Y-114471985D01*
X130878014Y-114468406D01*
X130216199Y-113778652D01*
X130212728Y-113774882D01*
X129754900Y-113256443D01*
X129579962Y-113058345D01*
X129576699Y-113054492D01*
X128974109Y-112312448D01*
X128970968Y-112308412D01*
X128399549Y-111542090D01*
X128396570Y-111537918D01*
X127857319Y-110748652D01*
X127854516Y-110744362D01*
X127653938Y-110423041D01*
X127348347Y-109933492D01*
X127345733Y-109929105D01*
X126873479Y-109097968D01*
X126871069Y-109093513D01*
X126433570Y-108243574D01*
X126431339Y-108239011D01*
X126029352Y-107371753D01*
X126027293Y-107367060D01*
X125661486Y-106483923D01*
X125659623Y-106479148D01*
X125330628Y-105581662D01*
X125328964Y-105576814D01*
X125274557Y-105406982D01*
X125037344Y-104666514D01*
X125035884Y-104661609D01*
X124782116Y-103739981D01*
X124780864Y-103735033D01*
X124752030Y-103610401D01*
X124565411Y-102803756D01*
X124564360Y-102798744D01*
X124387566Y-101859301D01*
X124386732Y-101854304D01*
X124248912Y-100908360D01*
X124248285Y-100903335D01*
X124149676Y-99952526D01*
X124149253Y-99947429D01*
X124146829Y-99908392D01*
X124090019Y-98993364D01*
X124089808Y-98988247D01*
X124079718Y-98500135D01*
X124070052Y-98032516D01*
X124070052Y-98030000D01*
X125314542Y-98030000D01*
X125334370Y-98963928D01*
X125393819Y-99896206D01*
X125492776Y-100825072D01*
X125492778Y-100825085D01*
X125630920Y-101747934D01*
X125631072Y-101748945D01*
X125808450Y-102666097D01*
X126024591Y-103574883D01*
X126279118Y-104473713D01*
X126571544Y-105360874D01*
X126571549Y-105360889D01*
X126571551Y-105360893D01*
X126653036Y-105576814D01*
X126901381Y-106234886D01*
X127268001Y-107094076D01*
X127601822Y-107792674D01*
X127670758Y-107936939D01*
X128108925Y-108761950D01*
X128581712Y-109567621D01*
X129066113Y-110318175D01*
X129088272Y-110352508D01*
X129627676Y-111115175D01*
X130196075Y-111850526D01*
X130198968Y-111854268D01*
X130801113Y-112568449D01*
X131267119Y-113075803D01*
X131433037Y-113256443D01*
X132093556Y-113916962D01*
X132093568Y-113916973D01*
X132093569Y-113916974D01*
X132781551Y-114548887D01*
X133495732Y-115151032D01*
X134234825Y-115722324D01*
X134997499Y-116261733D01*
X135782379Y-116768288D01*
X136588050Y-117241075D01*
X137413061Y-117679242D01*
X138255925Y-118081999D01*
X138429078Y-118155884D01*
X139115113Y-118448618D01*
X139115118Y-118448620D01*
X139115123Y-118448622D01*
X139989107Y-118778449D01*
X140876301Y-119070886D01*
X141775108Y-119325406D01*
X141775113Y-119325407D01*
X141775116Y-119325408D01*
X142307443Y-119452014D01*
X142683906Y-119541550D01*
X143601060Y-119718929D01*
X144524915Y-119857222D01*
X145453807Y-119956182D01*
X146386062Y-120015629D01*
X147320000Y-120035457D01*
X148253938Y-120015629D01*
X149186193Y-119956182D01*
X150115085Y-119857222D01*
X151038940Y-119718929D01*
X151956094Y-119541550D01*
X152864892Y-119325406D01*
X153763699Y-119070886D01*
X154650893Y-118778449D01*
X155524877Y-118448622D01*
X156384075Y-118081999D01*
X157226939Y-117679242D01*
X158051950Y-117241075D01*
X158857621Y-116768288D01*
X159642501Y-116261733D01*
X160405175Y-115722324D01*
X161144268Y-115151032D01*
X161858449Y-114548887D01*
X162546431Y-113916974D01*
X163206974Y-113256431D01*
X163838887Y-112568449D01*
X164441032Y-111854268D01*
X165012324Y-111115175D01*
X165551733Y-110352501D01*
X166058288Y-109567621D01*
X166531075Y-108761950D01*
X166969242Y-107936939D01*
X167371999Y-107094075D01*
X167738622Y-106234877D01*
X168068449Y-105360893D01*
X168360886Y-104473699D01*
X168615406Y-103574892D01*
X168831550Y-102666094D01*
X169008929Y-101748940D01*
X169147222Y-100825085D01*
X169246182Y-99896193D01*
X169305629Y-98963938D01*
X169325457Y-98030000D01*
X169305629Y-97096062D01*
X169246182Y-96163807D01*
X169147222Y-95234915D01*
X169008929Y-94311060D01*
X168831550Y-93393906D01*
X168615406Y-92485108D01*
X168360886Y-91586301D01*
X168093384Y-90774755D01*
X168068455Y-90699125D01*
X168068454Y-90699123D01*
X168068449Y-90699107D01*
X167738622Y-89825123D01*
X167724322Y-89791611D01*
X167394988Y-89019800D01*
X167371999Y-88965925D01*
X166969242Y-88123061D01*
X166531075Y-87298050D01*
X166058288Y-86492379D01*
X165551733Y-85707499D01*
X165012324Y-84944825D01*
X164441032Y-84205732D01*
X163838887Y-83491551D01*
X163206974Y-82803569D01*
X163206973Y-82803568D01*
X163206962Y-82803556D01*
X162546443Y-82143037D01*
X162328376Y-81942742D01*
X161858449Y-81511113D01*
X161144268Y-80908968D01*
X161114807Y-80886196D01*
X160405175Y-80337676D01*
X159642508Y-79798272D01*
X159642501Y-79798267D01*
X158857621Y-79291712D01*
X158051950Y-78818925D01*
X157226939Y-78380758D01*
X157226935Y-78380756D01*
X156384076Y-77978001D01*
X155524886Y-77611381D01*
X154650874Y-77281544D01*
X153763713Y-76989118D01*
X152864883Y-76734591D01*
X151956097Y-76518450D01*
X151038945Y-76341072D01*
X151038940Y-76341071D01*
X150115085Y-76202778D01*
X150115086Y-76202778D01*
X150115072Y-76202776D01*
X149186206Y-76103819D01*
X149186196Y-76103818D01*
X149186193Y-76103818D01*
X148876581Y-76084075D01*
X148253928Y-76044370D01*
X147319999Y-76024542D01*
X146386071Y-76044370D01*
X145641282Y-76091863D01*
X145453807Y-76103818D01*
X145453804Y-76103818D01*
X145453793Y-76103819D01*
X144524927Y-76202776D01*
X144263383Y-76241927D01*
X143601060Y-76341071D01*
X143601057Y-76341071D01*
X143601054Y-76341072D01*
X142683902Y-76518450D01*
X141775116Y-76734591D01*
X140876286Y-76989118D01*
X139989125Y-77281544D01*
X139115113Y-77611381D01*
X138255923Y-77978001D01*
X137413064Y-78380756D01*
X136588048Y-78818926D01*
X135782383Y-79291709D01*
X134997491Y-79798272D01*
X134234824Y-80337676D01*
X133495736Y-80908964D01*
X132781555Y-81511109D01*
X132093556Y-82143037D01*
X131433037Y-82803556D01*
X130801109Y-83491555D01*
X130198964Y-84205736D01*
X129627676Y-84944824D01*
X129088272Y-85707491D01*
X128581709Y-86492383D01*
X128108926Y-87298048D01*
X127670756Y-88123064D01*
X127268001Y-88965923D01*
X126901381Y-89825113D01*
X126571544Y-90699125D01*
X126279118Y-91586286D01*
X126024591Y-92485116D01*
X125808450Y-93393902D01*
X125651450Y-94205687D01*
X125631071Y-94311060D01*
X125584973Y-94619011D01*
X125492776Y-95234927D01*
X125393819Y-96163793D01*
X125334370Y-97096071D01*
X125314542Y-98030000D01*
X124070052Y-98030000D01*
X124070052Y-98027484D01*
X124089808Y-97071746D01*
X124090020Y-97066631D01*
X124146073Y-96163793D01*
X124149254Y-96112555D01*
X124149677Y-96107462D01*
X124248286Y-95156658D01*
X124248911Y-95151644D01*
X124386734Y-94205687D01*
X124387564Y-94200706D01*
X124564362Y-93261242D01*
X124565412Y-93256239D01*
X124646526Y-92905632D01*
X124780872Y-92324934D01*
X124782113Y-92320029D01*
X125035890Y-91398369D01*
X125037347Y-91393478D01*
X125328975Y-90483151D01*
X125330616Y-90478370D01*
X125659626Y-89580842D01*
X125661486Y-89576076D01*
X125759174Y-89340236D01*
X126027298Y-88692927D01*
X126029352Y-88688246D01*
X126431348Y-87820969D01*
X126433560Y-87816444D01*
X126871080Y-86966465D01*
X126873468Y-86962051D01*
X127345754Y-86130857D01*
X127348334Y-86126528D01*
X127854536Y-85315605D01*
X127857319Y-85311347D01*
X128396583Y-84522061D01*
X128399549Y-84517909D01*
X128970968Y-83751587D01*
X128974090Y-83747574D01*
X129576719Y-83005483D01*
X129579942Y-83001677D01*
X130214419Y-82283203D01*
X130878037Y-81591569D01*
X130881569Y-81588037D01*
X131571368Y-80926179D01*
X131575096Y-80922746D01*
X132291677Y-80289942D01*
X132295483Y-80286719D01*
X133037574Y-79684090D01*
X133041587Y-79680968D01*
X133807909Y-79109549D01*
X133812061Y-79106583D01*
X134601355Y-78567313D01*
X134605605Y-78564536D01*
X135416528Y-78058334D01*
X135420857Y-78055754D01*
X136252051Y-77583468D01*
X136256465Y-77581080D01*
X137106444Y-77143560D01*
X137110969Y-77141348D01*
X137978258Y-76739346D01*
X137982927Y-76737298D01*
X138866084Y-76371482D01*
X138870842Y-76369626D01*
X139768370Y-76040616D01*
X139773151Y-76038975D01*
X140683498Y-75747340D01*
X140688369Y-75745890D01*
X141610029Y-75492113D01*
X141614934Y-75490872D01*
X142546253Y-75275409D01*
X142551242Y-75274362D01*
X143490706Y-75097564D01*
X143495687Y-75096734D01*
X144307359Y-74978476D01*
X144349848Y-74979649D01*
X144389452Y-74995109D01*
X144425374Y-75016859D01*
X144564366Y-75053658D01*
X144624252Y-75054192D01*
X144846007Y-75032351D01*
X144834748Y-74918037D01*
X145332087Y-74866457D01*
X145343600Y-74983342D01*
X145565354Y-74961502D01*
X145623990Y-74949294D01*
X145753129Y-74886087D01*
X145777832Y-74863495D01*
X145813069Y-74840854D01*
X145853830Y-74831236D01*
X146356637Y-74800019D01*
X146361746Y-74799808D01*
X147317484Y-74780052D01*
X147322516Y-74780052D01*
X148278251Y-74799808D01*
G37*
%TD.AperFunction*%
%TD*%
M02*
